<?xml version="1.0" encoding="utf-8" standalone="no"?>
<!DOCTYPE svg PUBLIC "-//W3C//DTD SVG 1.1//EN"
  "http://www.w3.org/Graphics/SVG/1.1/DTD/svg11.dtd">
<!-- Created with matplotlib (https://matplotlib.org/) -->
<svg height="629.567125pt" version="1.1" viewBox="0 0 983.339062 629.567125" width="983.339062pt" xmlns="http://www.w3.org/2000/svg" xmlns:xlink="http://www.w3.org/1999/xlink">
 <metadata>
  <rdf:RDF xmlns:cc="http://creativecommons.org/ns#" xmlns:dc="http://purl.org/dc/elements/1.1/" xmlns:rdf="http://www.w3.org/1999/02/22-rdf-syntax-ns#">
   <cc:Work>
    <dc:type rdf:resource="http://purl.org/dc/dcmitype/StillImage"/>
    <dc:date>2023-07-25T19:32:09.648446</dc:date>
    <dc:format>image/svg+xml</dc:format>
    <dc:creator>
     <cc:Agent>
      <dc:title>Matplotlib v3.3.4, https://matplotlib.org/</dc:title>
     </cc:Agent>
    </dc:creator>
   </cc:Work>
  </rdf:RDF>
 </metadata>
 <defs>
  <style type="text/css">*{stroke-linecap:butt;stroke-linejoin:round;}</style>
 </defs>
 <g id="figure_1">
  <g id="patch_1">
   <path d="M 0 629.567125 
L 983.339062 629.567125 
L 983.339062 0 
L 0 0 
z
" style="fill:#ffffff;"/>
  </g>
  <g id="axes_1">
   <g id="patch_2">
    <path d="M 156.869531 465.838125 
L 826.469531 465.838125 
L 826.469531 22.318125 
L 156.869531 22.318125 
z
" style="fill:#ffffff;"/>
   </g>
   <g id="matplotlib.axis_1">
    <g id="xtick_1">
     <g id="line2d_1">
      <path clip-path="url(#p6577386261)" d="M 254.942259 465.838125 
L 254.942259 22.318125 
" style="fill:none;stroke:#b0b0b0;stroke-linecap:square;stroke-width:0.8;"/>
     </g>
     <g id="line2d_2">
      <defs>
       <path d="M 0 0 
L 0 3.5 
" id="m2bf0c4a777" style="stroke:#000000;stroke-width:0.8;"/>
      </defs>
      <g>
       <use style="stroke:#000000;stroke-width:0.8;" x="254.942259" xlink:href="#m2bf0c4a777" y="465.838125"/>
      </g>
     </g>
     <g id="text_1">
      <!-- 2 -->
      <g transform="translate(251.761009 480.436563)scale(0.1 -0.1)">
       <defs>
        <path d="M 19.1875 8.296875 
L 53.609375 8.296875 
L 53.609375 0 
L 7.328125 0 
L 7.328125 8.296875 
Q 12.9375 14.109375 22.625 23.890625 
Q 32.328125 33.6875 34.8125 36.53125 
Q 39.546875 41.84375 41.421875 45.53125 
Q 43.3125 49.21875 43.3125 52.78125 
Q 43.3125 58.59375 39.234375 62.25 
Q 35.15625 65.921875 28.609375 65.921875 
Q 23.96875 65.921875 18.8125 64.3125 
Q 13.671875 62.703125 7.8125 59.421875 
L 7.8125 69.390625 
Q 13.765625 71.78125 18.9375 73 
Q 24.125 74.21875 28.421875 74.21875 
Q 39.75 74.21875 46.484375 68.546875 
Q 53.21875 62.890625 53.21875 53.421875 
Q 53.21875 48.921875 51.53125 44.890625 
Q 49.859375 40.875 45.40625 35.40625 
Q 44.1875 33.984375 37.640625 27.21875 
Q 31.109375 20.453125 19.1875 8.296875 
z
" id="DejaVuSans-50"/>
       </defs>
       <use xlink:href="#DejaVuSans-50"/>
      </g>
     </g>
    </g>
    <g id="xtick_2">
     <g id="line2d_3">
      <path clip-path="url(#p6577386261)" d="M 390.214986 465.838125 
L 390.214986 22.318125 
" style="fill:none;stroke:#b0b0b0;stroke-linecap:square;stroke-width:0.8;"/>
     </g>
     <g id="line2d_4">
      <g>
       <use style="stroke:#000000;stroke-width:0.8;" x="390.214986" xlink:href="#m2bf0c4a777" y="465.838125"/>
      </g>
     </g>
     <g id="text_2">
      <!-- 4 -->
      <g transform="translate(387.033736 480.436563)scale(0.1 -0.1)">
       <defs>
        <path d="M 37.796875 64.3125 
L 12.890625 25.390625 
L 37.796875 25.390625 
z
M 35.203125 72.90625 
L 47.609375 72.90625 
L 47.609375 25.390625 
L 58.015625 25.390625 
L 58.015625 17.1875 
L 47.609375 17.1875 
L 47.609375 0 
L 37.796875 0 
L 37.796875 17.1875 
L 4.890625 17.1875 
L 4.890625 26.703125 
z
" id="DejaVuSans-52"/>
       </defs>
       <use xlink:href="#DejaVuSans-52"/>
      </g>
     </g>
    </g>
    <g id="xtick_3">
     <g id="line2d_5">
      <path clip-path="url(#p6577386261)" d="M 525.487713 465.838125 
L 525.487713 22.318125 
" style="fill:none;stroke:#b0b0b0;stroke-linecap:square;stroke-width:0.8;"/>
     </g>
     <g id="line2d_6">
      <g>
       <use style="stroke:#000000;stroke-width:0.8;" x="525.487713" xlink:href="#m2bf0c4a777" y="465.838125"/>
      </g>
     </g>
     <g id="text_3">
      <!-- 6 -->
      <g transform="translate(522.306463 480.436563)scale(0.1 -0.1)">
       <defs>
        <path d="M 33.015625 40.375 
Q 26.375 40.375 22.484375 35.828125 
Q 18.609375 31.296875 18.609375 23.390625 
Q 18.609375 15.53125 22.484375 10.953125 
Q 26.375 6.390625 33.015625 6.390625 
Q 39.65625 6.390625 43.53125 10.953125 
Q 47.40625 15.53125 47.40625 23.390625 
Q 47.40625 31.296875 43.53125 35.828125 
Q 39.65625 40.375 33.015625 40.375 
z
M 52.59375 71.296875 
L 52.59375 62.3125 
Q 48.875 64.0625 45.09375 64.984375 
Q 41.3125 65.921875 37.59375 65.921875 
Q 27.828125 65.921875 22.671875 59.328125 
Q 17.53125 52.734375 16.796875 39.40625 
Q 19.671875 43.65625 24.015625 45.921875 
Q 28.375 48.1875 33.59375 48.1875 
Q 44.578125 48.1875 50.953125 41.515625 
Q 57.328125 34.859375 57.328125 23.390625 
Q 57.328125 12.15625 50.6875 5.359375 
Q 44.046875 -1.421875 33.015625 -1.421875 
Q 20.359375 -1.421875 13.671875 8.265625 
Q 6.984375 17.96875 6.984375 36.375 
Q 6.984375 53.65625 15.1875 63.9375 
Q 23.390625 74.21875 37.203125 74.21875 
Q 40.921875 74.21875 44.703125 73.484375 
Q 48.484375 72.75 52.59375 71.296875 
z
" id="DejaVuSans-54"/>
       </defs>
       <use xlink:href="#DejaVuSans-54"/>
      </g>
     </g>
    </g>
    <g id="xtick_4">
     <g id="line2d_7">
      <path clip-path="url(#p6577386261)" d="M 660.76044 465.838125 
L 660.76044 22.318125 
" style="fill:none;stroke:#b0b0b0;stroke-linecap:square;stroke-width:0.8;"/>
     </g>
     <g id="line2d_8">
      <g>
       <use style="stroke:#000000;stroke-width:0.8;" x="660.76044" xlink:href="#m2bf0c4a777" y="465.838125"/>
      </g>
     </g>
     <g id="text_4">
      <!-- 8 -->
      <g transform="translate(657.57919 480.436563)scale(0.1 -0.1)">
       <defs>
        <path d="M 31.78125 34.625 
Q 24.75 34.625 20.71875 30.859375 
Q 16.703125 27.09375 16.703125 20.515625 
Q 16.703125 13.921875 20.71875 10.15625 
Q 24.75 6.390625 31.78125 6.390625 
Q 38.8125 6.390625 42.859375 10.171875 
Q 46.921875 13.96875 46.921875 20.515625 
Q 46.921875 27.09375 42.890625 30.859375 
Q 38.875 34.625 31.78125 34.625 
z
M 21.921875 38.8125 
Q 15.578125 40.375 12.03125 44.71875 
Q 8.5 49.078125 8.5 55.328125 
Q 8.5 64.0625 14.71875 69.140625 
Q 20.953125 74.21875 31.78125 74.21875 
Q 42.671875 74.21875 48.875 69.140625 
Q 55.078125 64.0625 55.078125 55.328125 
Q 55.078125 49.078125 51.53125 44.71875 
Q 48 40.375 41.703125 38.8125 
Q 48.828125 37.15625 52.796875 32.3125 
Q 56.78125 27.484375 56.78125 20.515625 
Q 56.78125 9.90625 50.3125 4.234375 
Q 43.84375 -1.421875 31.78125 -1.421875 
Q 19.734375 -1.421875 13.25 4.234375 
Q 6.78125 9.90625 6.78125 20.515625 
Q 6.78125 27.484375 10.78125 32.3125 
Q 14.796875 37.15625 21.921875 38.8125 
z
M 18.3125 54.390625 
Q 18.3125 48.734375 21.84375 45.5625 
Q 25.390625 42.390625 31.78125 42.390625 
Q 38.140625 42.390625 41.71875 45.5625 
Q 45.3125 48.734375 45.3125 54.390625 
Q 45.3125 60.0625 41.71875 63.234375 
Q 38.140625 66.40625 31.78125 66.40625 
Q 25.390625 66.40625 21.84375 63.234375 
Q 18.3125 60.0625 18.3125 54.390625 
z
" id="DejaVuSans-56"/>
       </defs>
       <use xlink:href="#DejaVuSans-56"/>
      </g>
     </g>
    </g>
    <g id="xtick_5">
     <g id="line2d_9">
      <path clip-path="url(#p6577386261)" d="M 796.033168 465.838125 
L 796.033168 22.318125 
" style="fill:none;stroke:#b0b0b0;stroke-linecap:square;stroke-width:0.8;"/>
     </g>
     <g id="line2d_10">
      <g>
       <use style="stroke:#000000;stroke-width:0.8;" x="796.033168" xlink:href="#m2bf0c4a777" y="465.838125"/>
      </g>
     </g>
     <g id="text_5">
      <!-- 10 -->
      <g transform="translate(789.670668 480.436563)scale(0.1 -0.1)">
       <defs>
        <path d="M 12.40625 8.296875 
L 28.515625 8.296875 
L 28.515625 63.921875 
L 10.984375 60.40625 
L 10.984375 69.390625 
L 28.421875 72.90625 
L 38.28125 72.90625 
L 38.28125 8.296875 
L 54.390625 8.296875 
L 54.390625 0 
L 12.40625 0 
z
" id="DejaVuSans-49"/>
        <path d="M 31.78125 66.40625 
Q 24.171875 66.40625 20.328125 58.90625 
Q 16.5 51.421875 16.5 36.375 
Q 16.5 21.390625 20.328125 13.890625 
Q 24.171875 6.390625 31.78125 6.390625 
Q 39.453125 6.390625 43.28125 13.890625 
Q 47.125 21.390625 47.125 36.375 
Q 47.125 51.421875 43.28125 58.90625 
Q 39.453125 66.40625 31.78125 66.40625 
z
M 31.78125 74.21875 
Q 44.046875 74.21875 50.515625 64.515625 
Q 56.984375 54.828125 56.984375 36.375 
Q 56.984375 17.96875 50.515625 8.265625 
Q 44.046875 -1.421875 31.78125 -1.421875 
Q 19.53125 -1.421875 13.0625 8.265625 
Q 6.59375 17.96875 6.59375 36.375 
Q 6.59375 54.828125 13.0625 64.515625 
Q 19.53125 74.21875 31.78125 74.21875 
z
" id="DejaVuSans-48"/>
       </defs>
       <use xlink:href="#DejaVuSans-49"/>
       <use x="63.623047" xlink:href="#DejaVuSans-48"/>
      </g>
     </g>
    </g>
    <g id="text_6">
     <!-- Number of Threads -->
     <g transform="translate(443.500781 494.114688)scale(0.1 -0.1)">
      <defs>
       <path d="M 9.8125 72.90625 
L 23.09375 72.90625 
L 55.421875 11.921875 
L 55.421875 72.90625 
L 64.984375 72.90625 
L 64.984375 0 
L 51.703125 0 
L 19.390625 60.984375 
L 19.390625 0 
L 9.8125 0 
z
" id="DejaVuSans-78"/>
       <path d="M 8.5 21.578125 
L 8.5 54.6875 
L 17.484375 54.6875 
L 17.484375 21.921875 
Q 17.484375 14.15625 20.5 10.265625 
Q 23.53125 6.390625 29.59375 6.390625 
Q 36.859375 6.390625 41.078125 11.03125 
Q 45.3125 15.671875 45.3125 23.6875 
L 45.3125 54.6875 
L 54.296875 54.6875 
L 54.296875 0 
L 45.3125 0 
L 45.3125 8.40625 
Q 42.046875 3.421875 37.71875 1 
Q 33.40625 -1.421875 27.6875 -1.421875 
Q 18.265625 -1.421875 13.375 4.4375 
Q 8.5 10.296875 8.5 21.578125 
z
M 31.109375 56 
z
" id="DejaVuSans-117"/>
       <path d="M 52 44.1875 
Q 55.375 50.25 60.0625 53.125 
Q 64.75 56 71.09375 56 
Q 79.640625 56 84.28125 50.015625 
Q 88.921875 44.046875 88.921875 33.015625 
L 88.921875 0 
L 79.890625 0 
L 79.890625 32.71875 
Q 79.890625 40.578125 77.09375 44.375 
Q 74.3125 48.1875 68.609375 48.1875 
Q 61.625 48.1875 57.5625 43.546875 
Q 53.515625 38.921875 53.515625 30.90625 
L 53.515625 0 
L 44.484375 0 
L 44.484375 32.71875 
Q 44.484375 40.625 41.703125 44.40625 
Q 38.921875 48.1875 33.109375 48.1875 
Q 26.21875 48.1875 22.15625 43.53125 
Q 18.109375 38.875 18.109375 30.90625 
L 18.109375 0 
L 9.078125 0 
L 9.078125 54.6875 
L 18.109375 54.6875 
L 18.109375 46.1875 
Q 21.1875 51.21875 25.484375 53.609375 
Q 29.78125 56 35.6875 56 
Q 41.65625 56 45.828125 52.96875 
Q 50 49.953125 52 44.1875 
z
" id="DejaVuSans-109"/>
       <path d="M 48.6875 27.296875 
Q 48.6875 37.203125 44.609375 42.84375 
Q 40.53125 48.484375 33.40625 48.484375 
Q 26.265625 48.484375 22.1875 42.84375 
Q 18.109375 37.203125 18.109375 27.296875 
Q 18.109375 17.390625 22.1875 11.75 
Q 26.265625 6.109375 33.40625 6.109375 
Q 40.53125 6.109375 44.609375 11.75 
Q 48.6875 17.390625 48.6875 27.296875 
z
M 18.109375 46.390625 
Q 20.953125 51.265625 25.265625 53.625 
Q 29.59375 56 35.59375 56 
Q 45.5625 56 51.78125 48.09375 
Q 58.015625 40.1875 58.015625 27.296875 
Q 58.015625 14.40625 51.78125 6.484375 
Q 45.5625 -1.421875 35.59375 -1.421875 
Q 29.59375 -1.421875 25.265625 0.953125 
Q 20.953125 3.328125 18.109375 8.203125 
L 18.109375 0 
L 9.078125 0 
L 9.078125 75.984375 
L 18.109375 75.984375 
z
" id="DejaVuSans-98"/>
       <path d="M 56.203125 29.59375 
L 56.203125 25.203125 
L 14.890625 25.203125 
Q 15.484375 15.921875 20.484375 11.0625 
Q 25.484375 6.203125 34.421875 6.203125 
Q 39.59375 6.203125 44.453125 7.46875 
Q 49.3125 8.734375 54.109375 11.28125 
L 54.109375 2.78125 
Q 49.265625 0.734375 44.1875 -0.34375 
Q 39.109375 -1.421875 33.890625 -1.421875 
Q 20.796875 -1.421875 13.15625 6.1875 
Q 5.515625 13.8125 5.515625 26.8125 
Q 5.515625 40.234375 12.765625 48.109375 
Q 20.015625 56 32.328125 56 
Q 43.359375 56 49.78125 48.890625 
Q 56.203125 41.796875 56.203125 29.59375 
z
M 47.21875 32.234375 
Q 47.125 39.59375 43.09375 43.984375 
Q 39.0625 48.390625 32.421875 48.390625 
Q 24.90625 48.390625 20.390625 44.140625 
Q 15.875 39.890625 15.1875 32.171875 
z
" id="DejaVuSans-101"/>
       <path d="M 41.109375 46.296875 
Q 39.59375 47.171875 37.8125 47.578125 
Q 36.03125 48 33.890625 48 
Q 26.265625 48 22.1875 43.046875 
Q 18.109375 38.09375 18.109375 28.8125 
L 18.109375 0 
L 9.078125 0 
L 9.078125 54.6875 
L 18.109375 54.6875 
L 18.109375 46.1875 
Q 20.953125 51.171875 25.484375 53.578125 
Q 30.03125 56 36.53125 56 
Q 37.453125 56 38.578125 55.875 
Q 39.703125 55.765625 41.0625 55.515625 
z
" id="DejaVuSans-114"/>
       <path id="DejaVuSans-32"/>
       <path d="M 30.609375 48.390625 
Q 23.390625 48.390625 19.1875 42.75 
Q 14.984375 37.109375 14.984375 27.296875 
Q 14.984375 17.484375 19.15625 11.84375 
Q 23.34375 6.203125 30.609375 6.203125 
Q 37.796875 6.203125 41.984375 11.859375 
Q 46.1875 17.53125 46.1875 27.296875 
Q 46.1875 37.015625 41.984375 42.703125 
Q 37.796875 48.390625 30.609375 48.390625 
z
M 30.609375 56 
Q 42.328125 56 49.015625 48.375 
Q 55.71875 40.765625 55.71875 27.296875 
Q 55.71875 13.875 49.015625 6.21875 
Q 42.328125 -1.421875 30.609375 -1.421875 
Q 18.84375 -1.421875 12.171875 6.21875 
Q 5.515625 13.875 5.515625 27.296875 
Q 5.515625 40.765625 12.171875 48.375 
Q 18.84375 56 30.609375 56 
z
" id="DejaVuSans-111"/>
       <path d="M 37.109375 75.984375 
L 37.109375 68.5 
L 28.515625 68.5 
Q 23.6875 68.5 21.796875 66.546875 
Q 19.921875 64.59375 19.921875 59.515625 
L 19.921875 54.6875 
L 34.71875 54.6875 
L 34.71875 47.703125 
L 19.921875 47.703125 
L 19.921875 0 
L 10.890625 0 
L 10.890625 47.703125 
L 2.296875 47.703125 
L 2.296875 54.6875 
L 10.890625 54.6875 
L 10.890625 58.5 
Q 10.890625 67.625 15.140625 71.796875 
Q 19.390625 75.984375 28.609375 75.984375 
z
" id="DejaVuSans-102"/>
       <path d="M -0.296875 72.90625 
L 61.375 72.90625 
L 61.375 64.59375 
L 35.5 64.59375 
L 35.5 0 
L 25.59375 0 
L 25.59375 64.59375 
L -0.296875 64.59375 
z
" id="DejaVuSans-84"/>
       <path d="M 54.890625 33.015625 
L 54.890625 0 
L 45.90625 0 
L 45.90625 32.71875 
Q 45.90625 40.484375 42.875 44.328125 
Q 39.84375 48.1875 33.796875 48.1875 
Q 26.515625 48.1875 22.3125 43.546875 
Q 18.109375 38.921875 18.109375 30.90625 
L 18.109375 0 
L 9.078125 0 
L 9.078125 75.984375 
L 18.109375 75.984375 
L 18.109375 46.1875 
Q 21.34375 51.125 25.703125 53.5625 
Q 30.078125 56 35.796875 56 
Q 45.21875 56 50.046875 50.171875 
Q 54.890625 44.34375 54.890625 33.015625 
z
" id="DejaVuSans-104"/>
       <path d="M 34.28125 27.484375 
Q 23.390625 27.484375 19.1875 25 
Q 14.984375 22.515625 14.984375 16.5 
Q 14.984375 11.71875 18.140625 8.90625 
Q 21.296875 6.109375 26.703125 6.109375 
Q 34.1875 6.109375 38.703125 11.40625 
Q 43.21875 16.703125 43.21875 25.484375 
L 43.21875 27.484375 
z
M 52.203125 31.203125 
L 52.203125 0 
L 43.21875 0 
L 43.21875 8.296875 
Q 40.140625 3.328125 35.546875 0.953125 
Q 30.953125 -1.421875 24.3125 -1.421875 
Q 15.921875 -1.421875 10.953125 3.296875 
Q 6 8.015625 6 15.921875 
Q 6 25.140625 12.171875 29.828125 
Q 18.359375 34.515625 30.609375 34.515625 
L 43.21875 34.515625 
L 43.21875 35.40625 
Q 43.21875 41.609375 39.140625 45 
Q 35.0625 48.390625 27.6875 48.390625 
Q 23 48.390625 18.546875 47.265625 
Q 14.109375 46.140625 10.015625 43.890625 
L 10.015625 52.203125 
Q 14.9375 54.109375 19.578125 55.046875 
Q 24.21875 56 28.609375 56 
Q 40.484375 56 46.34375 49.84375 
Q 52.203125 43.703125 52.203125 31.203125 
z
" id="DejaVuSans-97"/>
       <path d="M 45.40625 46.390625 
L 45.40625 75.984375 
L 54.390625 75.984375 
L 54.390625 0 
L 45.40625 0 
L 45.40625 8.203125 
Q 42.578125 3.328125 38.25 0.953125 
Q 33.9375 -1.421875 27.875 -1.421875 
Q 17.96875 -1.421875 11.734375 6.484375 
Q 5.515625 14.40625 5.515625 27.296875 
Q 5.515625 40.1875 11.734375 48.09375 
Q 17.96875 56 27.875 56 
Q 33.9375 56 38.25 53.625 
Q 42.578125 51.265625 45.40625 46.390625 
z
M 14.796875 27.296875 
Q 14.796875 17.390625 18.875 11.75 
Q 22.953125 6.109375 30.078125 6.109375 
Q 37.203125 6.109375 41.296875 11.75 
Q 45.40625 17.390625 45.40625 27.296875 
Q 45.40625 37.203125 41.296875 42.84375 
Q 37.203125 48.484375 30.078125 48.484375 
Q 22.953125 48.484375 18.875 42.84375 
Q 14.796875 37.203125 14.796875 27.296875 
z
" id="DejaVuSans-100"/>
       <path d="M 44.28125 53.078125 
L 44.28125 44.578125 
Q 40.484375 46.53125 36.375 47.5 
Q 32.28125 48.484375 27.875 48.484375 
Q 21.1875 48.484375 17.84375 46.4375 
Q 14.5 44.390625 14.5 40.28125 
Q 14.5 37.15625 16.890625 35.375 
Q 19.28125 33.59375 26.515625 31.984375 
L 29.59375 31.296875 
Q 39.15625 29.25 43.1875 25.515625 
Q 47.21875 21.78125 47.21875 15.09375 
Q 47.21875 7.46875 41.1875 3.015625 
Q 35.15625 -1.421875 24.609375 -1.421875 
Q 20.21875 -1.421875 15.453125 -0.5625 
Q 10.6875 0.296875 5.421875 2 
L 5.421875 11.28125 
Q 10.40625 8.6875 15.234375 7.390625 
Q 20.0625 6.109375 24.8125 6.109375 
Q 31.15625 6.109375 34.5625 8.28125 
Q 37.984375 10.453125 37.984375 14.40625 
Q 37.984375 18.0625 35.515625 20.015625 
Q 33.0625 21.96875 24.703125 23.78125 
L 21.578125 24.515625 
Q 13.234375 26.265625 9.515625 29.90625 
Q 5.8125 33.546875 5.8125 39.890625 
Q 5.8125 47.609375 11.28125 51.796875 
Q 16.75 56 26.8125 56 
Q 31.78125 56 36.171875 55.265625 
Q 40.578125 54.546875 44.28125 53.078125 
z
" id="DejaVuSans-115"/>
      </defs>
      <use xlink:href="#DejaVuSans-78"/>
      <use x="74.804688" xlink:href="#DejaVuSans-117"/>
      <use x="138.183594" xlink:href="#DejaVuSans-109"/>
      <use x="235.595703" xlink:href="#DejaVuSans-98"/>
      <use x="299.072266" xlink:href="#DejaVuSans-101"/>
      <use x="360.595703" xlink:href="#DejaVuSans-114"/>
      <use x="401.708984" xlink:href="#DejaVuSans-32"/>
      <use x="433.496094" xlink:href="#DejaVuSans-111"/>
      <use x="494.677734" xlink:href="#DejaVuSans-102"/>
      <use x="529.882812" xlink:href="#DejaVuSans-32"/>
      <use x="561.669922" xlink:href="#DejaVuSans-84"/>
      <use x="622.753906" xlink:href="#DejaVuSans-104"/>
      <use x="686.132812" xlink:href="#DejaVuSans-114"/>
      <use x="724.996094" xlink:href="#DejaVuSans-101"/>
      <use x="786.519531" xlink:href="#DejaVuSans-97"/>
      <use x="847.798828" xlink:href="#DejaVuSans-100"/>
      <use x="911.275391" xlink:href="#DejaVuSans-115"/>
     </g>
    </g>
   </g>
   <g id="matplotlib.axis_2">
    <g id="ytick_1">
     <g id="line2d_11">
      <path clip-path="url(#p6577386261)" d="M 156.869531 465.838125 
L 826.469531 465.838125 
" style="fill:none;stroke:#b0b0b0;stroke-linecap:square;stroke-width:0.8;"/>
     </g>
     <g id="line2d_12">
      <defs>
       <path d="M 0 0 
L -3.5 0 
" id="m1f26b0666a" style="stroke:#000000;stroke-width:0.8;"/>
      </defs>
      <g>
       <use style="stroke:#000000;stroke-width:0.8;" x="156.869531" xlink:href="#m1f26b0666a" y="465.838125"/>
      </g>
     </g>
     <g id="text_7">
      <!-- 0 -->
      <g transform="translate(143.507031 469.637344)scale(0.1 -0.1)">
       <use xlink:href="#DejaVuSans-48"/>
      </g>
     </g>
    </g>
    <g id="ytick_2">
     <g id="line2d_13">
      <path clip-path="url(#p6577386261)" d="M 156.869531 377.134125 
L 826.469531 377.134125 
" style="fill:none;stroke:#b0b0b0;stroke-linecap:square;stroke-width:0.8;"/>
     </g>
     <g id="line2d_14">
      <g>
       <use style="stroke:#000000;stroke-width:0.8;" x="156.869531" xlink:href="#m1f26b0666a" y="377.134125"/>
      </g>
     </g>
     <g id="text_8">
      <!-- 5000 -->
      <g transform="translate(124.419531 380.933344)scale(0.1 -0.1)">
       <defs>
        <path d="M 10.796875 72.90625 
L 49.515625 72.90625 
L 49.515625 64.59375 
L 19.828125 64.59375 
L 19.828125 46.734375 
Q 21.96875 47.46875 24.109375 47.828125 
Q 26.265625 48.1875 28.421875 48.1875 
Q 40.625 48.1875 47.75 41.5 
Q 54.890625 34.8125 54.890625 23.390625 
Q 54.890625 11.625 47.5625 5.09375 
Q 40.234375 -1.421875 26.90625 -1.421875 
Q 22.3125 -1.421875 17.546875 -0.640625 
Q 12.796875 0.140625 7.71875 1.703125 
L 7.71875 11.625 
Q 12.109375 9.234375 16.796875 8.0625 
Q 21.484375 6.890625 26.703125 6.890625 
Q 35.15625 6.890625 40.078125 11.328125 
Q 45.015625 15.765625 45.015625 23.390625 
Q 45.015625 31 40.078125 35.4375 
Q 35.15625 39.890625 26.703125 39.890625 
Q 22.75 39.890625 18.8125 39.015625 
Q 14.890625 38.140625 10.796875 36.28125 
z
" id="DejaVuSans-53"/>
       </defs>
       <use xlink:href="#DejaVuSans-53"/>
       <use x="63.623047" xlink:href="#DejaVuSans-48"/>
       <use x="127.246094" xlink:href="#DejaVuSans-48"/>
       <use x="190.869141" xlink:href="#DejaVuSans-48"/>
      </g>
     </g>
    </g>
    <g id="ytick_3">
     <g id="line2d_15">
      <path clip-path="url(#p6577386261)" d="M 156.869531 288.430125 
L 826.469531 288.430125 
" style="fill:none;stroke:#b0b0b0;stroke-linecap:square;stroke-width:0.8;"/>
     </g>
     <g id="line2d_16">
      <g>
       <use style="stroke:#000000;stroke-width:0.8;" x="156.869531" xlink:href="#m1f26b0666a" y="288.430125"/>
      </g>
     </g>
     <g id="text_9">
      <!-- 10000 -->
      <g transform="translate(118.057031 292.229344)scale(0.1 -0.1)">
       <use xlink:href="#DejaVuSans-49"/>
       <use x="63.623047" xlink:href="#DejaVuSans-48"/>
       <use x="127.246094" xlink:href="#DejaVuSans-48"/>
       <use x="190.869141" xlink:href="#DejaVuSans-48"/>
       <use x="254.492188" xlink:href="#DejaVuSans-48"/>
      </g>
     </g>
    </g>
    <g id="ytick_4">
     <g id="line2d_17">
      <path clip-path="url(#p6577386261)" d="M 156.869531 199.726125 
L 826.469531 199.726125 
" style="fill:none;stroke:#b0b0b0;stroke-linecap:square;stroke-width:0.8;"/>
     </g>
     <g id="line2d_18">
      <g>
       <use style="stroke:#000000;stroke-width:0.8;" x="156.869531" xlink:href="#m1f26b0666a" y="199.726125"/>
      </g>
     </g>
     <g id="text_10">
      <!-- 15000 -->
      <g transform="translate(118.057031 203.525344)scale(0.1 -0.1)">
       <use xlink:href="#DejaVuSans-49"/>
       <use x="63.623047" xlink:href="#DejaVuSans-53"/>
       <use x="127.246094" xlink:href="#DejaVuSans-48"/>
       <use x="190.869141" xlink:href="#DejaVuSans-48"/>
       <use x="254.492188" xlink:href="#DejaVuSans-48"/>
      </g>
     </g>
    </g>
    <g id="ytick_5">
     <g id="line2d_19">
      <path clip-path="url(#p6577386261)" d="M 156.869531 111.022125 
L 826.469531 111.022125 
" style="fill:none;stroke:#b0b0b0;stroke-linecap:square;stroke-width:0.8;"/>
     </g>
     <g id="line2d_20">
      <g>
       <use style="stroke:#000000;stroke-width:0.8;" x="156.869531" xlink:href="#m1f26b0666a" y="111.022125"/>
      </g>
     </g>
     <g id="text_11">
      <!-- 20000 -->
      <g transform="translate(118.057031 114.821344)scale(0.1 -0.1)">
       <use xlink:href="#DejaVuSans-50"/>
       <use x="63.623047" xlink:href="#DejaVuSans-48"/>
       <use x="127.246094" xlink:href="#DejaVuSans-48"/>
       <use x="190.869141" xlink:href="#DejaVuSans-48"/>
       <use x="254.492188" xlink:href="#DejaVuSans-48"/>
      </g>
     </g>
    </g>
    <g id="ytick_6">
     <g id="line2d_21">
      <path clip-path="url(#p6577386261)" d="M 156.869531 22.318125 
L 826.469531 22.318125 
" style="fill:none;stroke:#b0b0b0;stroke-linecap:square;stroke-width:0.8;"/>
     </g>
     <g id="line2d_22">
      <g>
       <use style="stroke:#000000;stroke-width:0.8;" x="156.869531" xlink:href="#m1f26b0666a" y="22.318125"/>
      </g>
     </g>
     <g id="text_12">
      <!-- 25000 -->
      <g transform="translate(118.057031 26.117344)scale(0.1 -0.1)">
       <use xlink:href="#DejaVuSans-50"/>
       <use x="63.623047" xlink:href="#DejaVuSans-53"/>
       <use x="127.246094" xlink:href="#DejaVuSans-48"/>
       <use x="190.869141" xlink:href="#DejaVuSans-48"/>
       <use x="254.492188" xlink:href="#DejaVuSans-48"/>
      </g>
     </g>
    </g>
    <g id="text_13">
     <!-- Rate (MB/s) -->
     <g transform="translate(111.977344 273.064844)rotate(-90)scale(0.1 -0.1)">
      <defs>
       <path d="M 44.390625 34.1875 
Q 47.5625 33.109375 50.5625 29.59375 
Q 53.5625 26.078125 56.59375 19.921875 
L 66.609375 0 
L 56 0 
L 46.6875 18.703125 
Q 43.0625 26.03125 39.671875 28.421875 
Q 36.28125 30.8125 30.421875 30.8125 
L 19.671875 30.8125 
L 19.671875 0 
L 9.8125 0 
L 9.8125 72.90625 
L 32.078125 72.90625 
Q 44.578125 72.90625 50.734375 67.671875 
Q 56.890625 62.453125 56.890625 51.90625 
Q 56.890625 45.015625 53.6875 40.46875 
Q 50.484375 35.9375 44.390625 34.1875 
z
M 19.671875 64.796875 
L 19.671875 38.921875 
L 32.078125 38.921875 
Q 39.203125 38.921875 42.84375 42.21875 
Q 46.484375 45.515625 46.484375 51.90625 
Q 46.484375 58.296875 42.84375 61.546875 
Q 39.203125 64.796875 32.078125 64.796875 
z
" id="DejaVuSans-82"/>
       <path d="M 18.3125 70.21875 
L 18.3125 54.6875 
L 36.8125 54.6875 
L 36.8125 47.703125 
L 18.3125 47.703125 
L 18.3125 18.015625 
Q 18.3125 11.328125 20.140625 9.421875 
Q 21.96875 7.515625 27.59375 7.515625 
L 36.8125 7.515625 
L 36.8125 0 
L 27.59375 0 
Q 17.1875 0 13.234375 3.875 
Q 9.28125 7.765625 9.28125 18.015625 
L 9.28125 47.703125 
L 2.6875 47.703125 
L 2.6875 54.6875 
L 9.28125 54.6875 
L 9.28125 70.21875 
z
" id="DejaVuSans-116"/>
       <path d="M 31 75.875 
Q 24.46875 64.65625 21.28125 53.65625 
Q 18.109375 42.671875 18.109375 31.390625 
Q 18.109375 20.125 21.3125 9.0625 
Q 24.515625 -2 31 -13.1875 
L 23.1875 -13.1875 
Q 15.875 -1.703125 12.234375 9.375 
Q 8.59375 20.453125 8.59375 31.390625 
Q 8.59375 42.28125 12.203125 53.3125 
Q 15.828125 64.359375 23.1875 75.875 
z
" id="DejaVuSans-40"/>
       <path d="M 9.8125 72.90625 
L 24.515625 72.90625 
L 43.109375 23.296875 
L 61.8125 72.90625 
L 76.515625 72.90625 
L 76.515625 0 
L 66.890625 0 
L 66.890625 64.015625 
L 48.09375 14.015625 
L 38.1875 14.015625 
L 19.390625 64.015625 
L 19.390625 0 
L 9.8125 0 
z
" id="DejaVuSans-77"/>
       <path d="M 19.671875 34.8125 
L 19.671875 8.109375 
L 35.5 8.109375 
Q 43.453125 8.109375 47.28125 11.40625 
Q 51.125 14.703125 51.125 21.484375 
Q 51.125 28.328125 47.28125 31.5625 
Q 43.453125 34.8125 35.5 34.8125 
z
M 19.671875 64.796875 
L 19.671875 42.828125 
L 34.28125 42.828125 
Q 41.5 42.828125 45.03125 45.53125 
Q 48.578125 48.25 48.578125 53.8125 
Q 48.578125 59.328125 45.03125 62.0625 
Q 41.5 64.796875 34.28125 64.796875 
z
M 9.8125 72.90625 
L 35.015625 72.90625 
Q 46.296875 72.90625 52.390625 68.21875 
Q 58.5 63.53125 58.5 54.890625 
Q 58.5 48.1875 55.375 44.234375 
Q 52.25 40.28125 46.1875 39.3125 
Q 53.46875 37.75 57.5 32.78125 
Q 61.53125 27.828125 61.53125 20.40625 
Q 61.53125 10.640625 54.890625 5.3125 
Q 48.25 0 35.984375 0 
L 9.8125 0 
z
" id="DejaVuSans-66"/>
       <path d="M 25.390625 72.90625 
L 33.6875 72.90625 
L 8.296875 -9.28125 
L 0 -9.28125 
z
" id="DejaVuSans-47"/>
       <path d="M 8.015625 75.875 
L 15.828125 75.875 
Q 23.140625 64.359375 26.78125 53.3125 
Q 30.421875 42.28125 30.421875 31.390625 
Q 30.421875 20.453125 26.78125 9.375 
Q 23.140625 -1.703125 15.828125 -13.1875 
L 8.015625 -13.1875 
Q 14.5 -2 17.703125 9.0625 
Q 20.90625 20.125 20.90625 31.390625 
Q 20.90625 42.671875 17.703125 53.65625 
Q 14.5 64.65625 8.015625 75.875 
z
" id="DejaVuSans-41"/>
      </defs>
      <use xlink:href="#DejaVuSans-82"/>
      <use x="67.232422" xlink:href="#DejaVuSans-97"/>
      <use x="128.511719" xlink:href="#DejaVuSans-116"/>
      <use x="167.720703" xlink:href="#DejaVuSans-101"/>
      <use x="229.244141" xlink:href="#DejaVuSans-32"/>
      <use x="261.03125" xlink:href="#DejaVuSans-40"/>
      <use x="300.044922" xlink:href="#DejaVuSans-77"/>
      <use x="386.324219" xlink:href="#DejaVuSans-66"/>
      <use x="454.927734" xlink:href="#DejaVuSans-47"/>
      <use x="488.619141" xlink:href="#DejaVuSans-115"/>
      <use x="540.71875" xlink:href="#DejaVuSans-41"/>
     </g>
    </g>
   </g>
   <g id="line2d_23">
    <path clip-path="url(#p6577386261)" d="M 187.305895 258.996364 
L 254.942259 223.085436 
L 322.578622 213.916991 
L 390.214986 215.731875 
L 457.851349 218.678622 
L 525.487713 222.503538 
L 593.124077 222.737717 
L 660.76044 220.381738 
L 728.396804 220.807518 
L 796.033168 220.544954 
" style="fill:none;stroke:#336600;stroke-linecap:square;stroke-width:1.5;"/>
    <defs>
     <path d="M -0 3 
L 3 -3 
L -3 -3 
z
" id="mcdf803fc0d" style="stroke:#336600;stroke-linejoin:miter;"/>
    </defs>
    <g clip-path="url(#p6577386261)">
     <use style="fill:#336600;stroke:#336600;stroke-linejoin:miter;" x="187.305895" xlink:href="#mcdf803fc0d" y="258.996364"/>
     <use style="fill:#336600;stroke:#336600;stroke-linejoin:miter;" x="254.942259" xlink:href="#mcdf803fc0d" y="223.085436"/>
     <use style="fill:#336600;stroke:#336600;stroke-linejoin:miter;" x="322.578622" xlink:href="#mcdf803fc0d" y="213.916991"/>
     <use style="fill:#336600;stroke:#336600;stroke-linejoin:miter;" x="390.214986" xlink:href="#mcdf803fc0d" y="215.731875"/>
     <use style="fill:#336600;stroke:#336600;stroke-linejoin:miter;" x="457.851349" xlink:href="#mcdf803fc0d" y="218.678622"/>
     <use style="fill:#336600;stroke:#336600;stroke-linejoin:miter;" x="525.487713" xlink:href="#mcdf803fc0d" y="222.503538"/>
     <use style="fill:#336600;stroke:#336600;stroke-linejoin:miter;" x="593.124077" xlink:href="#mcdf803fc0d" y="222.737717"/>
     <use style="fill:#336600;stroke:#336600;stroke-linejoin:miter;" x="660.76044" xlink:href="#mcdf803fc0d" y="220.381738"/>
     <use style="fill:#336600;stroke:#336600;stroke-linejoin:miter;" x="728.396804" xlink:href="#mcdf803fc0d" y="220.807518"/>
     <use style="fill:#336600;stroke:#336600;stroke-linejoin:miter;" x="796.033168" xlink:href="#mcdf803fc0d" y="220.544954"/>
    </g>
   </g>
   <g id="line2d_24">
    <path clip-path="url(#p6577386261)" d="M 187.305895 259.015879 
L 254.942259 221.337968 
L 322.578622 216.52134 
L 390.214986 217.174202 
L 457.851349 214.841287 
L 525.487713 216.319095 
L 593.124077 218.962474 
L 660.76044 218.804581 
L 728.396804 217.646107 
L 796.033168 218.524277 
" style="fill:none;stroke:#336600;stroke-linecap:square;stroke-width:1.5;"/>
    <defs>
     <path d="M 0 -3 
L -3 3 
L 3 3 
z
" id="mf1a394b936" style="stroke:#336600;stroke-linejoin:miter;"/>
    </defs>
    <g clip-path="url(#p6577386261)">
     <use style="fill:#336600;stroke:#336600;stroke-linejoin:miter;" x="187.305895" xlink:href="#mf1a394b936" y="259.015879"/>
     <use style="fill:#336600;stroke:#336600;stroke-linejoin:miter;" x="254.942259" xlink:href="#mf1a394b936" y="221.337968"/>
     <use style="fill:#336600;stroke:#336600;stroke-linejoin:miter;" x="322.578622" xlink:href="#mf1a394b936" y="216.52134"/>
     <use style="fill:#336600;stroke:#336600;stroke-linejoin:miter;" x="390.214986" xlink:href="#mf1a394b936" y="217.174202"/>
     <use style="fill:#336600;stroke:#336600;stroke-linejoin:miter;" x="457.851349" xlink:href="#mf1a394b936" y="214.841287"/>
     <use style="fill:#336600;stroke:#336600;stroke-linejoin:miter;" x="525.487713" xlink:href="#mf1a394b936" y="216.319095"/>
     <use style="fill:#336600;stroke:#336600;stroke-linejoin:miter;" x="593.124077" xlink:href="#mf1a394b936" y="218.962474"/>
     <use style="fill:#336600;stroke:#336600;stroke-linejoin:miter;" x="660.76044" xlink:href="#mf1a394b936" y="218.804581"/>
     <use style="fill:#336600;stroke:#336600;stroke-linejoin:miter;" x="728.396804" xlink:href="#mf1a394b936" y="217.646107"/>
     <use style="fill:#336600;stroke:#336600;stroke-linejoin:miter;" x="796.033168" xlink:href="#mf1a394b936" y="218.524277"/>
    </g>
   </g>
   <g id="line2d_25">
    <path clip-path="url(#p6577386261)" d="M 187.305895 258.983945 
L 254.942259 222.812228 
L 322.578622 214.058917 
L 390.214986 217.356932 
L 457.851349 219.512439 
L 525.487713 216.297806 
L 593.124077 216.487633 
L 660.76044 223.406545 
L 728.396804 217.060661 
L 796.033168 217.869641 
" style="fill:none;stroke:#336600;stroke-linecap:square;stroke-width:1.5;"/>
    <defs>
     <path d="M 0 -3 
L -0.673542 -0.927051 
L -2.85317 -0.927051 
L -1.089814 0.354102 
L -1.763356 2.427051 
L -0 1.145898 
L 1.763356 2.427051 
L 1.089814 0.354102 
L 2.85317 -0.927051 
L 0.673542 -0.927051 
z
" id="m6911c7ad59" style="stroke:#336600;stroke-linejoin:bevel;"/>
    </defs>
    <g clip-path="url(#p6577386261)">
     <use style="fill:#336600;stroke:#336600;stroke-linejoin:bevel;" x="187.305895" xlink:href="#m6911c7ad59" y="258.983945"/>
     <use style="fill:#336600;stroke:#336600;stroke-linejoin:bevel;" x="254.942259" xlink:href="#m6911c7ad59" y="222.812228"/>
     <use style="fill:#336600;stroke:#336600;stroke-linejoin:bevel;" x="322.578622" xlink:href="#m6911c7ad59" y="214.058917"/>
     <use style="fill:#336600;stroke:#336600;stroke-linejoin:bevel;" x="390.214986" xlink:href="#m6911c7ad59" y="217.356932"/>
     <use style="fill:#336600;stroke:#336600;stroke-linejoin:bevel;" x="457.851349" xlink:href="#m6911c7ad59" y="219.512439"/>
     <use style="fill:#336600;stroke:#336600;stroke-linejoin:bevel;" x="525.487713" xlink:href="#m6911c7ad59" y="216.297806"/>
     <use style="fill:#336600;stroke:#336600;stroke-linejoin:bevel;" x="593.124077" xlink:href="#m6911c7ad59" y="216.487633"/>
     <use style="fill:#336600;stroke:#336600;stroke-linejoin:bevel;" x="660.76044" xlink:href="#m6911c7ad59" y="223.406545"/>
     <use style="fill:#336600;stroke:#336600;stroke-linejoin:bevel;" x="728.396804" xlink:href="#m6911c7ad59" y="217.060661"/>
     <use style="fill:#336600;stroke:#336600;stroke-linejoin:bevel;" x="796.033168" xlink:href="#m6911c7ad59" y="217.869641"/>
    </g>
   </g>
   <g id="line2d_26">
    <path clip-path="url(#p6577386261)" d="M 187.305895 259.01233 
L 254.942259 221.359257 
L 322.578622 217.905123 
L 390.214986 216.095561 
L 457.851349 215.385929 
L 525.487713 216.665041 
L 593.124077 219.586951 
L 660.76044 218.671525 
L 728.396804 217.465151 
L 796.033168 218.570403 
" style="fill:none;stroke:#336600;stroke-linecap:square;stroke-width:1.5;"/>
    <defs>
     <path d="M -3 3 
L 3 -3 
M -3 -3 
L 3 3 
" id="m4f6380c5fd" style="stroke:#336600;"/>
    </defs>
    <g clip-path="url(#p6577386261)">
     <use style="fill:#336600;stroke:#336600;" x="187.305895" xlink:href="#m4f6380c5fd" y="259.01233"/>
     <use style="fill:#336600;stroke:#336600;" x="254.942259" xlink:href="#m4f6380c5fd" y="221.359257"/>
     <use style="fill:#336600;stroke:#336600;" x="322.578622" xlink:href="#m4f6380c5fd" y="217.905123"/>
     <use style="fill:#336600;stroke:#336600;" x="390.214986" xlink:href="#m4f6380c5fd" y="216.095561"/>
     <use style="fill:#336600;stroke:#336600;" x="457.851349" xlink:href="#m4f6380c5fd" y="215.385929"/>
     <use style="fill:#336600;stroke:#336600;" x="525.487713" xlink:href="#m4f6380c5fd" y="216.665041"/>
     <use style="fill:#336600;stroke:#336600;" x="593.124077" xlink:href="#m4f6380c5fd" y="219.586951"/>
     <use style="fill:#336600;stroke:#336600;" x="660.76044" xlink:href="#m4f6380c5fd" y="218.671525"/>
     <use style="fill:#336600;stroke:#336600;" x="728.396804" xlink:href="#m4f6380c5fd" y="217.465151"/>
     <use style="fill:#336600;stroke:#336600;" x="796.033168" xlink:href="#m4f6380c5fd" y="218.570403"/>
    </g>
   </g>
   <g id="line2d_27">
    <path clip-path="url(#p6577386261)" d="M 187.305895 339.928119 
L 254.942259 333.550302 
L 322.578622 333.701098 
L 390.214986 335.340348 
L 457.851349 336.204325 
L 525.487713 336.977824 
L 593.124077 339.220261 
L 660.76044 340.673233 
L 728.396804 341.71107 
L 796.033168 343.522405 
" style="fill:none;stroke:#03b95e;stroke-linecap:square;stroke-width:1.5;"/>
    <defs>
     <path d="M -0 3 
L 3 -3 
L -3 -3 
z
" id="mb06d5b872d" style="stroke:#03b95e;stroke-linejoin:miter;"/>
    </defs>
    <g clip-path="url(#p6577386261)">
     <use style="fill:#03b95e;stroke:#03b95e;stroke-linejoin:miter;" x="187.305895" xlink:href="#mb06d5b872d" y="339.928119"/>
     <use style="fill:#03b95e;stroke:#03b95e;stroke-linejoin:miter;" x="254.942259" xlink:href="#mb06d5b872d" y="333.550302"/>
     <use style="fill:#03b95e;stroke:#03b95e;stroke-linejoin:miter;" x="322.578622" xlink:href="#mb06d5b872d" y="333.701098"/>
     <use style="fill:#03b95e;stroke:#03b95e;stroke-linejoin:miter;" x="390.214986" xlink:href="#mb06d5b872d" y="335.340348"/>
     <use style="fill:#03b95e;stroke:#03b95e;stroke-linejoin:miter;" x="457.851349" xlink:href="#mb06d5b872d" y="336.204325"/>
     <use style="fill:#03b95e;stroke:#03b95e;stroke-linejoin:miter;" x="525.487713" xlink:href="#mb06d5b872d" y="336.977824"/>
     <use style="fill:#03b95e;stroke:#03b95e;stroke-linejoin:miter;" x="593.124077" xlink:href="#mb06d5b872d" y="339.220261"/>
     <use style="fill:#03b95e;stroke:#03b95e;stroke-linejoin:miter;" x="660.76044" xlink:href="#mb06d5b872d" y="340.673233"/>
     <use style="fill:#03b95e;stroke:#03b95e;stroke-linejoin:miter;" x="728.396804" xlink:href="#mb06d5b872d" y="341.71107"/>
     <use style="fill:#03b95e;stroke:#03b95e;stroke-linejoin:miter;" x="796.033168" xlink:href="#mb06d5b872d" y="343.522405"/>
    </g>
   </g>
   <g id="line2d_28">
    <path clip-path="url(#p6577386261)" d="M 187.305895 339.869575 
L 254.942259 333.759643 
L 322.578622 333.956566 
L 390.214986 335.682746 
L 457.851349 336.03224 
L 525.487713 337.621815 
L 593.124077 339.889089 
L 660.76044 340.634203 
L 728.396804 341.909767 
L 796.033168 343.456764 
" style="fill:none;stroke:#03b95e;stroke-linecap:square;stroke-width:1.5;"/>
    <defs>
     <path d="M 0 -3 
L -3 3 
L 3 3 
z
" id="m6632b9034d" style="stroke:#03b95e;stroke-linejoin:miter;"/>
    </defs>
    <g clip-path="url(#p6577386261)">
     <use style="fill:#03b95e;stroke:#03b95e;stroke-linejoin:miter;" x="187.305895" xlink:href="#m6632b9034d" y="339.869575"/>
     <use style="fill:#03b95e;stroke:#03b95e;stroke-linejoin:miter;" x="254.942259" xlink:href="#m6632b9034d" y="333.759643"/>
     <use style="fill:#03b95e;stroke:#03b95e;stroke-linejoin:miter;" x="322.578622" xlink:href="#m6632b9034d" y="333.956566"/>
     <use style="fill:#03b95e;stroke:#03b95e;stroke-linejoin:miter;" x="390.214986" xlink:href="#m6632b9034d" y="335.682746"/>
     <use style="fill:#03b95e;stroke:#03b95e;stroke-linejoin:miter;" x="457.851349" xlink:href="#m6632b9034d" y="336.03224"/>
     <use style="fill:#03b95e;stroke:#03b95e;stroke-linejoin:miter;" x="525.487713" xlink:href="#m6632b9034d" y="337.621815"/>
     <use style="fill:#03b95e;stroke:#03b95e;stroke-linejoin:miter;" x="593.124077" xlink:href="#m6632b9034d" y="339.889089"/>
     <use style="fill:#03b95e;stroke:#03b95e;stroke-linejoin:miter;" x="660.76044" xlink:href="#m6632b9034d" y="340.634203"/>
     <use style="fill:#03b95e;stroke:#03b95e;stroke-linejoin:miter;" x="728.396804" xlink:href="#m6632b9034d" y="341.909767"/>
     <use style="fill:#03b95e;stroke:#03b95e;stroke-linejoin:miter;" x="796.033168" xlink:href="#m6632b9034d" y="343.456764"/>
    </g>
   </g>
   <g id="line2d_29">
    <path clip-path="url(#p6577386261)" d="M 187.305895 339.864252 
L 254.942259 333.892699 
L 322.578622 333.873184 
L 390.214986 335.469856 
L 457.851349 336.195455 
L 525.487713 337.100236 
L 593.124077 339.525403 
L 660.76044 340.687425 
L 728.396804 341.373994 
L 796.033168 343.238553 
" style="fill:none;stroke:#03b95e;stroke-linecap:square;stroke-width:1.5;"/>
    <defs>
     <path d="M 0 -3 
L -0.673542 -0.927051 
L -2.85317 -0.927051 
L -1.089814 0.354102 
L -1.763356 2.427051 
L -0 1.145898 
L 1.763356 2.427051 
L 1.089814 0.354102 
L 2.85317 -0.927051 
L 0.673542 -0.927051 
z
" id="m5ab36a4ce5" style="stroke:#03b95e;stroke-linejoin:bevel;"/>
    </defs>
    <g clip-path="url(#p6577386261)">
     <use style="fill:#03b95e;stroke:#03b95e;stroke-linejoin:bevel;" x="187.305895" xlink:href="#m5ab36a4ce5" y="339.864252"/>
     <use style="fill:#03b95e;stroke:#03b95e;stroke-linejoin:bevel;" x="254.942259" xlink:href="#m5ab36a4ce5" y="333.892699"/>
     <use style="fill:#03b95e;stroke:#03b95e;stroke-linejoin:bevel;" x="322.578622" xlink:href="#m5ab36a4ce5" y="333.873184"/>
     <use style="fill:#03b95e;stroke:#03b95e;stroke-linejoin:bevel;" x="390.214986" xlink:href="#m5ab36a4ce5" y="335.469856"/>
     <use style="fill:#03b95e;stroke:#03b95e;stroke-linejoin:bevel;" x="457.851349" xlink:href="#m5ab36a4ce5" y="336.195455"/>
     <use style="fill:#03b95e;stroke:#03b95e;stroke-linejoin:bevel;" x="525.487713" xlink:href="#m5ab36a4ce5" y="337.100236"/>
     <use style="fill:#03b95e;stroke:#03b95e;stroke-linejoin:bevel;" x="593.124077" xlink:href="#m5ab36a4ce5" y="339.525403"/>
     <use style="fill:#03b95e;stroke:#03b95e;stroke-linejoin:bevel;" x="660.76044" xlink:href="#m5ab36a4ce5" y="340.687425"/>
     <use style="fill:#03b95e;stroke:#03b95e;stroke-linejoin:bevel;" x="728.396804" xlink:href="#m5ab36a4ce5" y="341.373994"/>
     <use style="fill:#03b95e;stroke:#03b95e;stroke-linejoin:bevel;" x="796.033168" xlink:href="#m5ab36a4ce5" y="343.238553"/>
    </g>
   </g>
   <g id="line2d_30">
    <path clip-path="url(#p6577386261)" d="M 187.305895 339.864252 
L 254.942259 333.720613 
L 322.578622 334.199615 
L 390.214986 335.622427 
L 457.851349 336.13691 
L 525.487713 337.407152 
L 593.124077 339.514759 
L 660.76044 340.777904 
L 728.396804 341.698651 
L 796.033168 343.329031 
" style="fill:none;stroke:#03b95e;stroke-linecap:square;stroke-width:1.5;"/>
    <defs>
     <path d="M -3 3 
L 3 -3 
M -3 -3 
L 3 3 
" id="me658a1a0f7" style="stroke:#03b95e;"/>
    </defs>
    <g clip-path="url(#p6577386261)">
     <use style="fill:#03b95e;stroke:#03b95e;" x="187.305895" xlink:href="#me658a1a0f7" y="339.864252"/>
     <use style="fill:#03b95e;stroke:#03b95e;" x="254.942259" xlink:href="#me658a1a0f7" y="333.720613"/>
     <use style="fill:#03b95e;stroke:#03b95e;" x="322.578622" xlink:href="#me658a1a0f7" y="334.199615"/>
     <use style="fill:#03b95e;stroke:#03b95e;" x="390.214986" xlink:href="#me658a1a0f7" y="335.622427"/>
     <use style="fill:#03b95e;stroke:#03b95e;" x="457.851349" xlink:href="#me658a1a0f7" y="336.13691"/>
     <use style="fill:#03b95e;stroke:#03b95e;" x="525.487713" xlink:href="#me658a1a0f7" y="337.407152"/>
     <use style="fill:#03b95e;stroke:#03b95e;" x="593.124077" xlink:href="#me658a1a0f7" y="339.514759"/>
     <use style="fill:#03b95e;stroke:#03b95e;" x="660.76044" xlink:href="#me658a1a0f7" y="340.777904"/>
     <use style="fill:#03b95e;stroke:#03b95e;" x="728.396804" xlink:href="#me658a1a0f7" y="341.698651"/>
     <use style="fill:#03b95e;stroke:#03b95e;" x="796.033168" xlink:href="#me658a1a0f7" y="343.329031"/>
    </g>
   </g>
   <g id="line2d_31">
    <path clip-path="url(#p6577386261)" d="M 187.305895 459.625297 
L 254.942259 462.112557 
L 322.578622 462.747678 
L 390.214986 463.012016 
L 457.851349 463.146846 
L 525.487713 463.216035 
L 593.124077 463.249742 
L 660.76044 463.251516 
L 728.396804 463.258613 
L 796.033168 463.23555 
" style="fill:none;stroke:#920000;stroke-linecap:square;stroke-width:1.5;"/>
    <defs>
     <path d="M 0 -3 
L -3 3 
L 3 3 
z
" id="m3064eaf863" style="stroke:#920000;stroke-linejoin:miter;"/>
    </defs>
    <g clip-path="url(#p6577386261)">
     <use style="fill:#920000;stroke:#920000;stroke-linejoin:miter;" x="187.305895" xlink:href="#m3064eaf863" y="459.625297"/>
     <use style="fill:#920000;stroke:#920000;stroke-linejoin:miter;" x="254.942259" xlink:href="#m3064eaf863" y="462.112557"/>
     <use style="fill:#920000;stroke:#920000;stroke-linejoin:miter;" x="322.578622" xlink:href="#m3064eaf863" y="462.747678"/>
     <use style="fill:#920000;stroke:#920000;stroke-linejoin:miter;" x="390.214986" xlink:href="#m3064eaf863" y="463.012016"/>
     <use style="fill:#920000;stroke:#920000;stroke-linejoin:miter;" x="457.851349" xlink:href="#m3064eaf863" y="463.146846"/>
     <use style="fill:#920000;stroke:#920000;stroke-linejoin:miter;" x="525.487713" xlink:href="#m3064eaf863" y="463.216035"/>
     <use style="fill:#920000;stroke:#920000;stroke-linejoin:miter;" x="593.124077" xlink:href="#m3064eaf863" y="463.249742"/>
     <use style="fill:#920000;stroke:#920000;stroke-linejoin:miter;" x="660.76044" xlink:href="#m3064eaf863" y="463.251516"/>
     <use style="fill:#920000;stroke:#920000;stroke-linejoin:miter;" x="728.396804" xlink:href="#m3064eaf863" y="463.258613"/>
     <use style="fill:#920000;stroke:#920000;stroke-linejoin:miter;" x="796.033168" xlink:href="#m3064eaf863" y="463.23555"/>
    </g>
   </g>
   <g id="line2d_32">
    <path clip-path="url(#p6577386261)" d="M 187.305895 459.614652 
L 254.942259 462.116105 
L 322.578622 462.745904 
L 390.214986 463.017338 
L 457.851349 463.146846 
L 525.487713 463.216035 
" style="fill:none;stroke:#920000;stroke-linecap:square;stroke-width:1.5;"/>
    <defs>
     <path d="M -3 3 
L 3 -3 
M -3 -3 
L 3 3 
" id="m64a8de9d97" style="stroke:#920000;"/>
    </defs>
    <g clip-path="url(#p6577386261)">
     <use style="fill:#920000;stroke:#920000;" x="187.305895" xlink:href="#m64a8de9d97" y="459.614652"/>
     <use style="fill:#920000;stroke:#920000;" x="254.942259" xlink:href="#m64a8de9d97" y="462.116105"/>
     <use style="fill:#920000;stroke:#920000;" x="322.578622" xlink:href="#m64a8de9d97" y="462.745904"/>
     <use style="fill:#920000;stroke:#920000;" x="390.214986" xlink:href="#m64a8de9d97" y="463.017338"/>
     <use style="fill:#920000;stroke:#920000;" x="457.851349" xlink:href="#m64a8de9d97" y="463.146846"/>
     <use style="fill:#920000;stroke:#920000;" x="525.487713" xlink:href="#m64a8de9d97" y="463.216035"/>
    </g>
   </g>
   <g id="patch_3">
    <path d="M 156.869531 465.838125 
L 156.869531 22.318125 
" style="fill:none;stroke:#000000;stroke-linecap:square;stroke-linejoin:miter;stroke-width:0.8;"/>
   </g>
   <g id="patch_4">
    <path d="M 826.469531 465.838125 
L 826.469531 22.318125 
" style="fill:none;stroke:#000000;stroke-linecap:square;stroke-linejoin:miter;stroke-width:0.8;"/>
   </g>
   <g id="patch_5">
    <path d="M 156.869531 465.838125 
L 826.469531 465.838125 
" style="fill:none;stroke:#000000;stroke-linecap:square;stroke-linejoin:miter;stroke-width:0.8;"/>
   </g>
   <g id="patch_6">
    <path d="M 156.869531 22.318125 
L 826.469531 22.318125 
" style="fill:none;stroke:#000000;stroke-linecap:square;stroke-linejoin:miter;stroke-width:0.8;"/>
   </g>
   <g id="text_14">
    <!-- Scale Rates -->
    <g transform="translate(456.738281 16.318125)scale(0.12 -0.12)">
     <defs>
      <path d="M 53.515625 70.515625 
L 53.515625 60.890625 
Q 47.90625 63.578125 42.921875 64.890625 
Q 37.9375 66.21875 33.296875 66.21875 
Q 25.25 66.21875 20.875 63.09375 
Q 16.5 59.96875 16.5 54.203125 
Q 16.5 49.359375 19.40625 46.890625 
Q 22.3125 44.4375 30.421875 42.921875 
L 36.375 41.703125 
Q 47.40625 39.59375 52.65625 34.296875 
Q 57.90625 29 57.90625 20.125 
Q 57.90625 9.515625 50.796875 4.046875 
Q 43.703125 -1.421875 29.984375 -1.421875 
Q 24.8125 -1.421875 18.96875 -0.25 
Q 13.140625 0.921875 6.890625 3.21875 
L 6.890625 13.375 
Q 12.890625 10.015625 18.65625 8.296875 
Q 24.421875 6.59375 29.984375 6.59375 
Q 38.421875 6.59375 43.015625 9.90625 
Q 47.609375 13.234375 47.609375 19.390625 
Q 47.609375 24.75 44.3125 27.78125 
Q 41.015625 30.8125 33.5 32.328125 
L 27.484375 33.5 
Q 16.453125 35.6875 11.515625 40.375 
Q 6.59375 45.0625 6.59375 53.421875 
Q 6.59375 63.09375 13.40625 68.65625 
Q 20.21875 74.21875 32.171875 74.21875 
Q 37.3125 74.21875 42.625 73.28125 
Q 47.953125 72.359375 53.515625 70.515625 
z
" id="DejaVuSans-83"/>
      <path d="M 48.78125 52.59375 
L 48.78125 44.1875 
Q 44.96875 46.296875 41.140625 47.34375 
Q 37.3125 48.390625 33.40625 48.390625 
Q 24.65625 48.390625 19.8125 42.84375 
Q 14.984375 37.3125 14.984375 27.296875 
Q 14.984375 17.28125 19.8125 11.734375 
Q 24.65625 6.203125 33.40625 6.203125 
Q 37.3125 6.203125 41.140625 7.25 
Q 44.96875 8.296875 48.78125 10.40625 
L 48.78125 2.09375 
Q 45.015625 0.34375 40.984375 -0.53125 
Q 36.96875 -1.421875 32.421875 -1.421875 
Q 20.0625 -1.421875 12.78125 6.34375 
Q 5.515625 14.109375 5.515625 27.296875 
Q 5.515625 40.671875 12.859375 48.328125 
Q 20.21875 56 33.015625 56 
Q 37.15625 56 41.109375 55.140625 
Q 45.0625 54.296875 48.78125 52.59375 
z
" id="DejaVuSans-99"/>
      <path d="M 9.421875 75.984375 
L 18.40625 75.984375 
L 18.40625 0 
L 9.421875 0 
z
" id="DejaVuSans-108"/>
     </defs>
     <use xlink:href="#DejaVuSans-83"/>
     <use x="63.476562" xlink:href="#DejaVuSans-99"/>
     <use x="118.457031" xlink:href="#DejaVuSans-97"/>
     <use x="179.736328" xlink:href="#DejaVuSans-108"/>
     <use x="207.519531" xlink:href="#DejaVuSans-101"/>
     <use x="269.042969" xlink:href="#DejaVuSans-32"/>
     <use x="300.830078" xlink:href="#DejaVuSans-82"/>
     <use x="368.0625" xlink:href="#DejaVuSans-97"/>
     <use x="429.341797" xlink:href="#DejaVuSans-116"/>
     <use x="468.550781" xlink:href="#DejaVuSans-101"/>
     <use x="530.074219" xlink:href="#DejaVuSans-115"/>
    </g>
   </g>
   <g id="legend_1">
    <g id="patch_7">
     <path d="M 9.2 622.367125 
L 974.139063 622.367125 
Q 976.139063 622.367125 976.139063 620.367125 
L 976.139063 561.542125 
Q 976.139063 559.542125 974.139063 559.542125 
L 9.2 559.542125 
Q 7.2 559.542125 7.2 561.542125 
L 7.2 620.367125 
Q 7.2 622.367125 9.2 622.367125 
z
" style="fill:#ffffff;opacity:0.8;stroke:#cccccc;stroke-linejoin:miter;"/>
    </g>
    <g id="line2d_33">
     <path d="M 11.2 567.640562 
L 31.2 567.640562 
" style="fill:none;stroke:#336600;stroke-linecap:square;stroke-width:1.5;"/>
    </g>
    <g id="line2d_34">
     <g>
      <use style="fill:#336600;stroke:#336600;stroke-linejoin:miter;" x="21.2" xlink:href="#mcdf803fc0d" y="567.640562"/>
     </g>
    </g>
    <g id="text_15">
     <!-- noHT_Socket0_Socket0DDR4_Close_FT_NOPATH -->
     <g transform="translate(39.2 571.140562)scale(0.1 -0.1)">
      <defs>
       <path d="M 54.890625 33.015625 
L 54.890625 0 
L 45.90625 0 
L 45.90625 32.71875 
Q 45.90625 40.484375 42.875 44.328125 
Q 39.84375 48.1875 33.796875 48.1875 
Q 26.515625 48.1875 22.3125 43.546875 
Q 18.109375 38.921875 18.109375 30.90625 
L 18.109375 0 
L 9.078125 0 
L 9.078125 54.6875 
L 18.109375 54.6875 
L 18.109375 46.1875 
Q 21.34375 51.125 25.703125 53.5625 
Q 30.078125 56 35.796875 56 
Q 45.21875 56 50.046875 50.171875 
Q 54.890625 44.34375 54.890625 33.015625 
z
" id="DejaVuSans-110"/>
       <path d="M 9.8125 72.90625 
L 19.671875 72.90625 
L 19.671875 43.015625 
L 55.515625 43.015625 
L 55.515625 72.90625 
L 65.375 72.90625 
L 65.375 0 
L 55.515625 0 
L 55.515625 34.71875 
L 19.671875 34.71875 
L 19.671875 0 
L 9.8125 0 
z
" id="DejaVuSans-72"/>
       <path d="M 50.984375 -16.609375 
L 50.984375 -23.578125 
L -0.984375 -23.578125 
L -0.984375 -16.609375 
z
" id="DejaVuSans-95"/>
       <path d="M 9.078125 75.984375 
L 18.109375 75.984375 
L 18.109375 31.109375 
L 44.921875 54.6875 
L 56.390625 54.6875 
L 27.390625 29.109375 
L 57.625 0 
L 45.90625 0 
L 18.109375 26.703125 
L 18.109375 0 
L 9.078125 0 
z
" id="DejaVuSans-107"/>
       <path d="M 19.671875 64.796875 
L 19.671875 8.109375 
L 31.59375 8.109375 
Q 46.6875 8.109375 53.6875 14.9375 
Q 60.6875 21.78125 60.6875 36.53125 
Q 60.6875 51.171875 53.6875 57.984375 
Q 46.6875 64.796875 31.59375 64.796875 
z
M 9.8125 72.90625 
L 30.078125 72.90625 
Q 51.265625 72.90625 61.171875 64.09375 
Q 71.09375 55.28125 71.09375 36.53125 
Q 71.09375 17.671875 61.125 8.828125 
Q 51.171875 0 30.078125 0 
L 9.8125 0 
z
" id="DejaVuSans-68"/>
       <path d="M 64.40625 67.28125 
L 64.40625 56.890625 
Q 59.421875 61.53125 53.78125 63.8125 
Q 48.140625 66.109375 41.796875 66.109375 
Q 29.296875 66.109375 22.65625 58.46875 
Q 16.015625 50.828125 16.015625 36.375 
Q 16.015625 21.96875 22.65625 14.328125 
Q 29.296875 6.6875 41.796875 6.6875 
Q 48.140625 6.6875 53.78125 8.984375 
Q 59.421875 11.28125 64.40625 15.921875 
L 64.40625 5.609375 
Q 59.234375 2.09375 53.4375 0.328125 
Q 47.65625 -1.421875 41.21875 -1.421875 
Q 24.65625 -1.421875 15.125 8.703125 
Q 5.609375 18.84375 5.609375 36.375 
Q 5.609375 53.953125 15.125 64.078125 
Q 24.65625 74.21875 41.21875 74.21875 
Q 47.75 74.21875 53.53125 72.484375 
Q 59.328125 70.75 64.40625 67.28125 
z
" id="DejaVuSans-67"/>
       <path d="M 9.8125 72.90625 
L 51.703125 72.90625 
L 51.703125 64.59375 
L 19.671875 64.59375 
L 19.671875 43.109375 
L 48.578125 43.109375 
L 48.578125 34.8125 
L 19.671875 34.8125 
L 19.671875 0 
L 9.8125 0 
z
" id="DejaVuSans-70"/>
       <path d="M 39.40625 66.21875 
Q 28.65625 66.21875 22.328125 58.203125 
Q 16.015625 50.203125 16.015625 36.375 
Q 16.015625 22.609375 22.328125 14.59375 
Q 28.65625 6.59375 39.40625 6.59375 
Q 50.140625 6.59375 56.421875 14.59375 
Q 62.703125 22.609375 62.703125 36.375 
Q 62.703125 50.203125 56.421875 58.203125 
Q 50.140625 66.21875 39.40625 66.21875 
z
M 39.40625 74.21875 
Q 54.734375 74.21875 63.90625 63.9375 
Q 73.09375 53.65625 73.09375 36.375 
Q 73.09375 19.140625 63.90625 8.859375 
Q 54.734375 -1.421875 39.40625 -1.421875 
Q 24.03125 -1.421875 14.8125 8.828125 
Q 5.609375 19.09375 5.609375 36.375 
Q 5.609375 53.65625 14.8125 63.9375 
Q 24.03125 74.21875 39.40625 74.21875 
z
" id="DejaVuSans-79"/>
       <path d="M 19.671875 64.796875 
L 19.671875 37.40625 
L 32.078125 37.40625 
Q 38.96875 37.40625 42.71875 40.96875 
Q 46.484375 44.53125 46.484375 51.125 
Q 46.484375 57.671875 42.71875 61.234375 
Q 38.96875 64.796875 32.078125 64.796875 
z
M 9.8125 72.90625 
L 32.078125 72.90625 
Q 44.34375 72.90625 50.609375 67.359375 
Q 56.890625 61.8125 56.890625 51.125 
Q 56.890625 40.328125 50.609375 34.8125 
Q 44.34375 29.296875 32.078125 29.296875 
L 19.671875 29.296875 
L 19.671875 0 
L 9.8125 0 
z
" id="DejaVuSans-80"/>
       <path d="M 34.1875 63.1875 
L 20.796875 26.90625 
L 47.609375 26.90625 
z
M 28.609375 72.90625 
L 39.796875 72.90625 
L 67.578125 0 
L 57.328125 0 
L 50.6875 18.703125 
L 17.828125 18.703125 
L 11.1875 0 
L 0.78125 0 
z
" id="DejaVuSans-65"/>
      </defs>
      <use xlink:href="#DejaVuSans-110"/>
      <use x="63.378906" xlink:href="#DejaVuSans-111"/>
      <use x="124.560547" xlink:href="#DejaVuSans-72"/>
      <use x="199.755859" xlink:href="#DejaVuSans-84"/>
      <use x="260.839844" xlink:href="#DejaVuSans-95"/>
      <use x="310.839844" xlink:href="#DejaVuSans-83"/>
      <use x="374.316406" xlink:href="#DejaVuSans-111"/>
      <use x="435.498047" xlink:href="#DejaVuSans-99"/>
      <use x="490.478516" xlink:href="#DejaVuSans-107"/>
      <use x="544.763672" xlink:href="#DejaVuSans-101"/>
      <use x="606.287109" xlink:href="#DejaVuSans-116"/>
      <use x="645.496094" xlink:href="#DejaVuSans-48"/>
      <use x="709.119141" xlink:href="#DejaVuSans-95"/>
      <use x="759.119141" xlink:href="#DejaVuSans-83"/>
      <use x="822.595703" xlink:href="#DejaVuSans-111"/>
      <use x="883.777344" xlink:href="#DejaVuSans-99"/>
      <use x="938.757812" xlink:href="#DejaVuSans-107"/>
      <use x="993.042969" xlink:href="#DejaVuSans-101"/>
      <use x="1054.566406" xlink:href="#DejaVuSans-116"/>
      <use x="1093.775391" xlink:href="#DejaVuSans-48"/>
      <use x="1157.398438" xlink:href="#DejaVuSans-68"/>
      <use x="1234.400391" xlink:href="#DejaVuSans-68"/>
      <use x="1311.402344" xlink:href="#DejaVuSans-82"/>
      <use x="1380.884766" xlink:href="#DejaVuSans-52"/>
      <use x="1444.507812" xlink:href="#DejaVuSans-95"/>
      <use x="1494.507812" xlink:href="#DejaVuSans-67"/>
      <use x="1564.332031" xlink:href="#DejaVuSans-108"/>
      <use x="1592.115234" xlink:href="#DejaVuSans-111"/>
      <use x="1653.296875" xlink:href="#DejaVuSans-115"/>
      <use x="1705.396484" xlink:href="#DejaVuSans-101"/>
      <use x="1766.919922" xlink:href="#DejaVuSans-95"/>
      <use x="1816.919922" xlink:href="#DejaVuSans-70"/>
      <use x="1872.689453" xlink:href="#DejaVuSans-84"/>
      <use x="1933.773438" xlink:href="#DejaVuSans-95"/>
      <use x="1983.773438" xlink:href="#DejaVuSans-78"/>
      <use x="2058.578125" xlink:href="#DejaVuSans-79"/>
      <use x="2137.289062" xlink:href="#DejaVuSans-80"/>
      <use x="2191.216797" xlink:href="#DejaVuSans-65"/>
      <use x="2251.875" xlink:href="#DejaVuSans-84"/>
      <use x="2312.958984" xlink:href="#DejaVuSans-72"/>
     </g>
    </g>
    <g id="line2d_35">
     <path d="M 11.2 582.596813 
L 31.2 582.596813 
" style="fill:none;stroke:#336600;stroke-linecap:square;stroke-width:1.5;"/>
    </g>
    <g id="line2d_36">
     <g>
      <use style="fill:#336600;stroke:#336600;stroke-linejoin:miter;" x="21.2" xlink:href="#mf1a394b936" y="582.596813"/>
     </g>
    </g>
    <g id="text_16">
     <!-- noHT_Socket0_Socket0DDR4_Close_noFT_NOPATH -->
     <g transform="translate(39.2 586.096813)scale(0.1 -0.1)">
      <use xlink:href="#DejaVuSans-110"/>
      <use x="63.378906" xlink:href="#DejaVuSans-111"/>
      <use x="124.560547" xlink:href="#DejaVuSans-72"/>
      <use x="199.755859" xlink:href="#DejaVuSans-84"/>
      <use x="260.839844" xlink:href="#DejaVuSans-95"/>
      <use x="310.839844" xlink:href="#DejaVuSans-83"/>
      <use x="374.316406" xlink:href="#DejaVuSans-111"/>
      <use x="435.498047" xlink:href="#DejaVuSans-99"/>
      <use x="490.478516" xlink:href="#DejaVuSans-107"/>
      <use x="544.763672" xlink:href="#DejaVuSans-101"/>
      <use x="606.287109" xlink:href="#DejaVuSans-116"/>
      <use x="645.496094" xlink:href="#DejaVuSans-48"/>
      <use x="709.119141" xlink:href="#DejaVuSans-95"/>
      <use x="759.119141" xlink:href="#DejaVuSans-83"/>
      <use x="822.595703" xlink:href="#DejaVuSans-111"/>
      <use x="883.777344" xlink:href="#DejaVuSans-99"/>
      <use x="938.757812" xlink:href="#DejaVuSans-107"/>
      <use x="993.042969" xlink:href="#DejaVuSans-101"/>
      <use x="1054.566406" xlink:href="#DejaVuSans-116"/>
      <use x="1093.775391" xlink:href="#DejaVuSans-48"/>
      <use x="1157.398438" xlink:href="#DejaVuSans-68"/>
      <use x="1234.400391" xlink:href="#DejaVuSans-68"/>
      <use x="1311.402344" xlink:href="#DejaVuSans-82"/>
      <use x="1380.884766" xlink:href="#DejaVuSans-52"/>
      <use x="1444.507812" xlink:href="#DejaVuSans-95"/>
      <use x="1494.507812" xlink:href="#DejaVuSans-67"/>
      <use x="1564.332031" xlink:href="#DejaVuSans-108"/>
      <use x="1592.115234" xlink:href="#DejaVuSans-111"/>
      <use x="1653.296875" xlink:href="#DejaVuSans-115"/>
      <use x="1705.396484" xlink:href="#DejaVuSans-101"/>
      <use x="1766.919922" xlink:href="#DejaVuSans-95"/>
      <use x="1816.919922" xlink:href="#DejaVuSans-110"/>
      <use x="1880.298828" xlink:href="#DejaVuSans-111"/>
      <use x="1941.480469" xlink:href="#DejaVuSans-70"/>
      <use x="1997.25" xlink:href="#DejaVuSans-84"/>
      <use x="2058.333984" xlink:href="#DejaVuSans-95"/>
      <use x="2108.333984" xlink:href="#DejaVuSans-78"/>
      <use x="2183.138672" xlink:href="#DejaVuSans-79"/>
      <use x="2261.849609" xlink:href="#DejaVuSans-80"/>
      <use x="2315.777344" xlink:href="#DejaVuSans-65"/>
      <use x="2376.435547" xlink:href="#DejaVuSans-84"/>
      <use x="2437.519531" xlink:href="#DejaVuSans-72"/>
     </g>
    </g>
    <g id="line2d_37">
     <path d="M 11.2 597.553063 
L 31.2 597.553063 
" style="fill:none;stroke:#336600;stroke-linecap:square;stroke-width:1.5;"/>
    </g>
    <g id="line2d_38">
     <g>
      <use style="fill:#336600;stroke:#336600;stroke-linejoin:bevel;" x="21.2" xlink:href="#m6911c7ad59" y="597.553063"/>
     </g>
    </g>
    <g id="text_17">
     <!-- noHT_Socket0_Socket0DDR4_Spread_FT_NOPATH -->
     <g transform="translate(39.2 601.053063)scale(0.1 -0.1)">
      <defs>
       <path d="M 18.109375 8.203125 
L 18.109375 -20.796875 
L 9.078125 -20.796875 
L 9.078125 54.6875 
L 18.109375 54.6875 
L 18.109375 46.390625 
Q 20.953125 51.265625 25.265625 53.625 
Q 29.59375 56 35.59375 56 
Q 45.5625 56 51.78125 48.09375 
Q 58.015625 40.1875 58.015625 27.296875 
Q 58.015625 14.40625 51.78125 6.484375 
Q 45.5625 -1.421875 35.59375 -1.421875 
Q 29.59375 -1.421875 25.265625 0.953125 
Q 20.953125 3.328125 18.109375 8.203125 
z
M 48.6875 27.296875 
Q 48.6875 37.203125 44.609375 42.84375 
Q 40.53125 48.484375 33.40625 48.484375 
Q 26.265625 48.484375 22.1875 42.84375 
Q 18.109375 37.203125 18.109375 27.296875 
Q 18.109375 17.390625 22.1875 11.75 
Q 26.265625 6.109375 33.40625 6.109375 
Q 40.53125 6.109375 44.609375 11.75 
Q 48.6875 17.390625 48.6875 27.296875 
z
" id="DejaVuSans-112"/>
      </defs>
      <use xlink:href="#DejaVuSans-110"/>
      <use x="63.378906" xlink:href="#DejaVuSans-111"/>
      <use x="124.560547" xlink:href="#DejaVuSans-72"/>
      <use x="199.755859" xlink:href="#DejaVuSans-84"/>
      <use x="260.839844" xlink:href="#DejaVuSans-95"/>
      <use x="310.839844" xlink:href="#DejaVuSans-83"/>
      <use x="374.316406" xlink:href="#DejaVuSans-111"/>
      <use x="435.498047" xlink:href="#DejaVuSans-99"/>
      <use x="490.478516" xlink:href="#DejaVuSans-107"/>
      <use x="544.763672" xlink:href="#DejaVuSans-101"/>
      <use x="606.287109" xlink:href="#DejaVuSans-116"/>
      <use x="645.496094" xlink:href="#DejaVuSans-48"/>
      <use x="709.119141" xlink:href="#DejaVuSans-95"/>
      <use x="759.119141" xlink:href="#DejaVuSans-83"/>
      <use x="822.595703" xlink:href="#DejaVuSans-111"/>
      <use x="883.777344" xlink:href="#DejaVuSans-99"/>
      <use x="938.757812" xlink:href="#DejaVuSans-107"/>
      <use x="993.042969" xlink:href="#DejaVuSans-101"/>
      <use x="1054.566406" xlink:href="#DejaVuSans-116"/>
      <use x="1093.775391" xlink:href="#DejaVuSans-48"/>
      <use x="1157.398438" xlink:href="#DejaVuSans-68"/>
      <use x="1234.400391" xlink:href="#DejaVuSans-68"/>
      <use x="1311.402344" xlink:href="#DejaVuSans-82"/>
      <use x="1380.884766" xlink:href="#DejaVuSans-52"/>
      <use x="1444.507812" xlink:href="#DejaVuSans-95"/>
      <use x="1494.507812" xlink:href="#DejaVuSans-83"/>
      <use x="1557.984375" xlink:href="#DejaVuSans-112"/>
      <use x="1621.460938" xlink:href="#DejaVuSans-114"/>
      <use x="1660.324219" xlink:href="#DejaVuSans-101"/>
      <use x="1721.847656" xlink:href="#DejaVuSans-97"/>
      <use x="1783.126953" xlink:href="#DejaVuSans-100"/>
      <use x="1846.603516" xlink:href="#DejaVuSans-95"/>
      <use x="1896.603516" xlink:href="#DejaVuSans-70"/>
      <use x="1952.373047" xlink:href="#DejaVuSans-84"/>
      <use x="2013.457031" xlink:href="#DejaVuSans-95"/>
      <use x="2063.457031" xlink:href="#DejaVuSans-78"/>
      <use x="2138.261719" xlink:href="#DejaVuSans-79"/>
      <use x="2216.972656" xlink:href="#DejaVuSans-80"/>
      <use x="2270.900391" xlink:href="#DejaVuSans-65"/>
      <use x="2331.558594" xlink:href="#DejaVuSans-84"/>
      <use x="2392.642578" xlink:href="#DejaVuSans-72"/>
     </g>
    </g>
    <g id="line2d_39">
     <path d="M 11.2 612.509313 
L 31.2 612.509313 
" style="fill:none;stroke:#336600;stroke-linecap:square;stroke-width:1.5;"/>
    </g>
    <g id="line2d_40">
     <g>
      <use style="fill:#336600;stroke:#336600;" x="21.2" xlink:href="#m4f6380c5fd" y="612.509313"/>
     </g>
    </g>
    <g id="text_18">
     <!-- noHT_Socket0_Socket0DDR4_Spread_noFT_NOPATH -->
     <g transform="translate(39.2 616.009313)scale(0.1 -0.1)">
      <use xlink:href="#DejaVuSans-110"/>
      <use x="63.378906" xlink:href="#DejaVuSans-111"/>
      <use x="124.560547" xlink:href="#DejaVuSans-72"/>
      <use x="199.755859" xlink:href="#DejaVuSans-84"/>
      <use x="260.839844" xlink:href="#DejaVuSans-95"/>
      <use x="310.839844" xlink:href="#DejaVuSans-83"/>
      <use x="374.316406" xlink:href="#DejaVuSans-111"/>
      <use x="435.498047" xlink:href="#DejaVuSans-99"/>
      <use x="490.478516" xlink:href="#DejaVuSans-107"/>
      <use x="544.763672" xlink:href="#DejaVuSans-101"/>
      <use x="606.287109" xlink:href="#DejaVuSans-116"/>
      <use x="645.496094" xlink:href="#DejaVuSans-48"/>
      <use x="709.119141" xlink:href="#DejaVuSans-95"/>
      <use x="759.119141" xlink:href="#DejaVuSans-83"/>
      <use x="822.595703" xlink:href="#DejaVuSans-111"/>
      <use x="883.777344" xlink:href="#DejaVuSans-99"/>
      <use x="938.757812" xlink:href="#DejaVuSans-107"/>
      <use x="993.042969" xlink:href="#DejaVuSans-101"/>
      <use x="1054.566406" xlink:href="#DejaVuSans-116"/>
      <use x="1093.775391" xlink:href="#DejaVuSans-48"/>
      <use x="1157.398438" xlink:href="#DejaVuSans-68"/>
      <use x="1234.400391" xlink:href="#DejaVuSans-68"/>
      <use x="1311.402344" xlink:href="#DejaVuSans-82"/>
      <use x="1380.884766" xlink:href="#DejaVuSans-52"/>
      <use x="1444.507812" xlink:href="#DejaVuSans-95"/>
      <use x="1494.507812" xlink:href="#DejaVuSans-83"/>
      <use x="1557.984375" xlink:href="#DejaVuSans-112"/>
      <use x="1621.460938" xlink:href="#DejaVuSans-114"/>
      <use x="1660.324219" xlink:href="#DejaVuSans-101"/>
      <use x="1721.847656" xlink:href="#DejaVuSans-97"/>
      <use x="1783.126953" xlink:href="#DejaVuSans-100"/>
      <use x="1846.603516" xlink:href="#DejaVuSans-95"/>
      <use x="1896.603516" xlink:href="#DejaVuSans-110"/>
      <use x="1959.982422" xlink:href="#DejaVuSans-111"/>
      <use x="2021.164062" xlink:href="#DejaVuSans-70"/>
      <use x="2076.933594" xlink:href="#DejaVuSans-84"/>
      <use x="2138.017578" xlink:href="#DejaVuSans-95"/>
      <use x="2188.017578" xlink:href="#DejaVuSans-78"/>
      <use x="2262.822266" xlink:href="#DejaVuSans-79"/>
      <use x="2341.533203" xlink:href="#DejaVuSans-80"/>
      <use x="2395.460938" xlink:href="#DejaVuSans-65"/>
      <use x="2456.119141" xlink:href="#DejaVuSans-84"/>
      <use x="2517.203125" xlink:href="#DejaVuSans-72"/>
     </g>
    </g>
    <g id="line2d_41">
     <path d="M 318.446875 567.640562 
L 338.446875 567.640562 
" style="fill:none;stroke:#03b95e;stroke-linecap:square;stroke-width:1.5;"/>
    </g>
    <g id="line2d_42">
     <g>
      <use style="fill:#03b95e;stroke:#03b95e;stroke-linejoin:miter;" x="328.446875" xlink:href="#mb06d5b872d" y="567.640562"/>
     </g>
    </g>
    <g id="text_19">
     <!-- noHT_Socket0_Socket1DDR4_Close_FT_NOPATH -->
     <g transform="translate(346.446875 571.140562)scale(0.1 -0.1)">
      <use xlink:href="#DejaVuSans-110"/>
      <use x="63.378906" xlink:href="#DejaVuSans-111"/>
      <use x="124.560547" xlink:href="#DejaVuSans-72"/>
      <use x="199.755859" xlink:href="#DejaVuSans-84"/>
      <use x="260.839844" xlink:href="#DejaVuSans-95"/>
      <use x="310.839844" xlink:href="#DejaVuSans-83"/>
      <use x="374.316406" xlink:href="#DejaVuSans-111"/>
      <use x="435.498047" xlink:href="#DejaVuSans-99"/>
      <use x="490.478516" xlink:href="#DejaVuSans-107"/>
      <use x="544.763672" xlink:href="#DejaVuSans-101"/>
      <use x="606.287109" xlink:href="#DejaVuSans-116"/>
      <use x="645.496094" xlink:href="#DejaVuSans-48"/>
      <use x="709.119141" xlink:href="#DejaVuSans-95"/>
      <use x="759.119141" xlink:href="#DejaVuSans-83"/>
      <use x="822.595703" xlink:href="#DejaVuSans-111"/>
      <use x="883.777344" xlink:href="#DejaVuSans-99"/>
      <use x="938.757812" xlink:href="#DejaVuSans-107"/>
      <use x="993.042969" xlink:href="#DejaVuSans-101"/>
      <use x="1054.566406" xlink:href="#DejaVuSans-116"/>
      <use x="1093.775391" xlink:href="#DejaVuSans-49"/>
      <use x="1157.398438" xlink:href="#DejaVuSans-68"/>
      <use x="1234.400391" xlink:href="#DejaVuSans-68"/>
      <use x="1311.402344" xlink:href="#DejaVuSans-82"/>
      <use x="1380.884766" xlink:href="#DejaVuSans-52"/>
      <use x="1444.507812" xlink:href="#DejaVuSans-95"/>
      <use x="1494.507812" xlink:href="#DejaVuSans-67"/>
      <use x="1564.332031" xlink:href="#DejaVuSans-108"/>
      <use x="1592.115234" xlink:href="#DejaVuSans-111"/>
      <use x="1653.296875" xlink:href="#DejaVuSans-115"/>
      <use x="1705.396484" xlink:href="#DejaVuSans-101"/>
      <use x="1766.919922" xlink:href="#DejaVuSans-95"/>
      <use x="1816.919922" xlink:href="#DejaVuSans-70"/>
      <use x="1872.689453" xlink:href="#DejaVuSans-84"/>
      <use x="1933.773438" xlink:href="#DejaVuSans-95"/>
      <use x="1983.773438" xlink:href="#DejaVuSans-78"/>
      <use x="2058.578125" xlink:href="#DejaVuSans-79"/>
      <use x="2137.289062" xlink:href="#DejaVuSans-80"/>
      <use x="2191.216797" xlink:href="#DejaVuSans-65"/>
      <use x="2251.875" xlink:href="#DejaVuSans-84"/>
      <use x="2312.958984" xlink:href="#DejaVuSans-72"/>
     </g>
    </g>
    <g id="line2d_43">
     <path d="M 318.446875 582.596813 
L 338.446875 582.596813 
" style="fill:none;stroke:#03b95e;stroke-linecap:square;stroke-width:1.5;"/>
    </g>
    <g id="line2d_44">
     <g>
      <use style="fill:#03b95e;stroke:#03b95e;stroke-linejoin:miter;" x="328.446875" xlink:href="#m6632b9034d" y="582.596813"/>
     </g>
    </g>
    <g id="text_20">
     <!-- noHT_Socket0_Socket1DDR4_Close_noFT_NOPATH -->
     <g transform="translate(346.446875 586.096813)scale(0.1 -0.1)">
      <use xlink:href="#DejaVuSans-110"/>
      <use x="63.378906" xlink:href="#DejaVuSans-111"/>
      <use x="124.560547" xlink:href="#DejaVuSans-72"/>
      <use x="199.755859" xlink:href="#DejaVuSans-84"/>
      <use x="260.839844" xlink:href="#DejaVuSans-95"/>
      <use x="310.839844" xlink:href="#DejaVuSans-83"/>
      <use x="374.316406" xlink:href="#DejaVuSans-111"/>
      <use x="435.498047" xlink:href="#DejaVuSans-99"/>
      <use x="490.478516" xlink:href="#DejaVuSans-107"/>
      <use x="544.763672" xlink:href="#DejaVuSans-101"/>
      <use x="606.287109" xlink:href="#DejaVuSans-116"/>
      <use x="645.496094" xlink:href="#DejaVuSans-48"/>
      <use x="709.119141" xlink:href="#DejaVuSans-95"/>
      <use x="759.119141" xlink:href="#DejaVuSans-83"/>
      <use x="822.595703" xlink:href="#DejaVuSans-111"/>
      <use x="883.777344" xlink:href="#DejaVuSans-99"/>
      <use x="938.757812" xlink:href="#DejaVuSans-107"/>
      <use x="993.042969" xlink:href="#DejaVuSans-101"/>
      <use x="1054.566406" xlink:href="#DejaVuSans-116"/>
      <use x="1093.775391" xlink:href="#DejaVuSans-49"/>
      <use x="1157.398438" xlink:href="#DejaVuSans-68"/>
      <use x="1234.400391" xlink:href="#DejaVuSans-68"/>
      <use x="1311.402344" xlink:href="#DejaVuSans-82"/>
      <use x="1380.884766" xlink:href="#DejaVuSans-52"/>
      <use x="1444.507812" xlink:href="#DejaVuSans-95"/>
      <use x="1494.507812" xlink:href="#DejaVuSans-67"/>
      <use x="1564.332031" xlink:href="#DejaVuSans-108"/>
      <use x="1592.115234" xlink:href="#DejaVuSans-111"/>
      <use x="1653.296875" xlink:href="#DejaVuSans-115"/>
      <use x="1705.396484" xlink:href="#DejaVuSans-101"/>
      <use x="1766.919922" xlink:href="#DejaVuSans-95"/>
      <use x="1816.919922" xlink:href="#DejaVuSans-110"/>
      <use x="1880.298828" xlink:href="#DejaVuSans-111"/>
      <use x="1941.480469" xlink:href="#DejaVuSans-70"/>
      <use x="1997.25" xlink:href="#DejaVuSans-84"/>
      <use x="2058.333984" xlink:href="#DejaVuSans-95"/>
      <use x="2108.333984" xlink:href="#DejaVuSans-78"/>
      <use x="2183.138672" xlink:href="#DejaVuSans-79"/>
      <use x="2261.849609" xlink:href="#DejaVuSans-80"/>
      <use x="2315.777344" xlink:href="#DejaVuSans-65"/>
      <use x="2376.435547" xlink:href="#DejaVuSans-84"/>
      <use x="2437.519531" xlink:href="#DejaVuSans-72"/>
     </g>
    </g>
    <g id="line2d_45">
     <path d="M 318.446875 597.553063 
L 338.446875 597.553063 
" style="fill:none;stroke:#03b95e;stroke-linecap:square;stroke-width:1.5;"/>
    </g>
    <g id="line2d_46">
     <g>
      <use style="fill:#03b95e;stroke:#03b95e;stroke-linejoin:bevel;" x="328.446875" xlink:href="#m5ab36a4ce5" y="597.553063"/>
     </g>
    </g>
    <g id="text_21">
     <!-- noHT_Socket0_Socket1DDR4_Spread_FT_NOPATH -->
     <g transform="translate(346.446875 601.053063)scale(0.1 -0.1)">
      <use xlink:href="#DejaVuSans-110"/>
      <use x="63.378906" xlink:href="#DejaVuSans-111"/>
      <use x="124.560547" xlink:href="#DejaVuSans-72"/>
      <use x="199.755859" xlink:href="#DejaVuSans-84"/>
      <use x="260.839844" xlink:href="#DejaVuSans-95"/>
      <use x="310.839844" xlink:href="#DejaVuSans-83"/>
      <use x="374.316406" xlink:href="#DejaVuSans-111"/>
      <use x="435.498047" xlink:href="#DejaVuSans-99"/>
      <use x="490.478516" xlink:href="#DejaVuSans-107"/>
      <use x="544.763672" xlink:href="#DejaVuSans-101"/>
      <use x="606.287109" xlink:href="#DejaVuSans-116"/>
      <use x="645.496094" xlink:href="#DejaVuSans-48"/>
      <use x="709.119141" xlink:href="#DejaVuSans-95"/>
      <use x="759.119141" xlink:href="#DejaVuSans-83"/>
      <use x="822.595703" xlink:href="#DejaVuSans-111"/>
      <use x="883.777344" xlink:href="#DejaVuSans-99"/>
      <use x="938.757812" xlink:href="#DejaVuSans-107"/>
      <use x="993.042969" xlink:href="#DejaVuSans-101"/>
      <use x="1054.566406" xlink:href="#DejaVuSans-116"/>
      <use x="1093.775391" xlink:href="#DejaVuSans-49"/>
      <use x="1157.398438" xlink:href="#DejaVuSans-68"/>
      <use x="1234.400391" xlink:href="#DejaVuSans-68"/>
      <use x="1311.402344" xlink:href="#DejaVuSans-82"/>
      <use x="1380.884766" xlink:href="#DejaVuSans-52"/>
      <use x="1444.507812" xlink:href="#DejaVuSans-95"/>
      <use x="1494.507812" xlink:href="#DejaVuSans-83"/>
      <use x="1557.984375" xlink:href="#DejaVuSans-112"/>
      <use x="1621.460938" xlink:href="#DejaVuSans-114"/>
      <use x="1660.324219" xlink:href="#DejaVuSans-101"/>
      <use x="1721.847656" xlink:href="#DejaVuSans-97"/>
      <use x="1783.126953" xlink:href="#DejaVuSans-100"/>
      <use x="1846.603516" xlink:href="#DejaVuSans-95"/>
      <use x="1896.603516" xlink:href="#DejaVuSans-70"/>
      <use x="1952.373047" xlink:href="#DejaVuSans-84"/>
      <use x="2013.457031" xlink:href="#DejaVuSans-95"/>
      <use x="2063.457031" xlink:href="#DejaVuSans-78"/>
      <use x="2138.261719" xlink:href="#DejaVuSans-79"/>
      <use x="2216.972656" xlink:href="#DejaVuSans-80"/>
      <use x="2270.900391" xlink:href="#DejaVuSans-65"/>
      <use x="2331.558594" xlink:href="#DejaVuSans-84"/>
      <use x="2392.642578" xlink:href="#DejaVuSans-72"/>
     </g>
    </g>
    <g id="line2d_47">
     <path d="M 617.723438 567.640562 
L 637.723438 567.640562 
" style="fill:none;stroke:#03b95e;stroke-linecap:square;stroke-width:1.5;"/>
    </g>
    <g id="line2d_48">
     <g>
      <use style="fill:#03b95e;stroke:#03b95e;" x="627.723438" xlink:href="#me658a1a0f7" y="567.640562"/>
     </g>
    </g>
    <g id="text_22">
     <!-- noHT_Socket0_Socket1DDR4_Spread_noFT_NOPATH -->
     <g transform="translate(645.723438 571.140562)scale(0.1 -0.1)">
      <use xlink:href="#DejaVuSans-110"/>
      <use x="63.378906" xlink:href="#DejaVuSans-111"/>
      <use x="124.560547" xlink:href="#DejaVuSans-72"/>
      <use x="199.755859" xlink:href="#DejaVuSans-84"/>
      <use x="260.839844" xlink:href="#DejaVuSans-95"/>
      <use x="310.839844" xlink:href="#DejaVuSans-83"/>
      <use x="374.316406" xlink:href="#DejaVuSans-111"/>
      <use x="435.498047" xlink:href="#DejaVuSans-99"/>
      <use x="490.478516" xlink:href="#DejaVuSans-107"/>
      <use x="544.763672" xlink:href="#DejaVuSans-101"/>
      <use x="606.287109" xlink:href="#DejaVuSans-116"/>
      <use x="645.496094" xlink:href="#DejaVuSans-48"/>
      <use x="709.119141" xlink:href="#DejaVuSans-95"/>
      <use x="759.119141" xlink:href="#DejaVuSans-83"/>
      <use x="822.595703" xlink:href="#DejaVuSans-111"/>
      <use x="883.777344" xlink:href="#DejaVuSans-99"/>
      <use x="938.757812" xlink:href="#DejaVuSans-107"/>
      <use x="993.042969" xlink:href="#DejaVuSans-101"/>
      <use x="1054.566406" xlink:href="#DejaVuSans-116"/>
      <use x="1093.775391" xlink:href="#DejaVuSans-49"/>
      <use x="1157.398438" xlink:href="#DejaVuSans-68"/>
      <use x="1234.400391" xlink:href="#DejaVuSans-68"/>
      <use x="1311.402344" xlink:href="#DejaVuSans-82"/>
      <use x="1380.884766" xlink:href="#DejaVuSans-52"/>
      <use x="1444.507812" xlink:href="#DejaVuSans-95"/>
      <use x="1494.507812" xlink:href="#DejaVuSans-83"/>
      <use x="1557.984375" xlink:href="#DejaVuSans-112"/>
      <use x="1621.460938" xlink:href="#DejaVuSans-114"/>
      <use x="1660.324219" xlink:href="#DejaVuSans-101"/>
      <use x="1721.847656" xlink:href="#DejaVuSans-97"/>
      <use x="1783.126953" xlink:href="#DejaVuSans-100"/>
      <use x="1846.603516" xlink:href="#DejaVuSans-95"/>
      <use x="1896.603516" xlink:href="#DejaVuSans-110"/>
      <use x="1959.982422" xlink:href="#DejaVuSans-111"/>
      <use x="2021.164062" xlink:href="#DejaVuSans-70"/>
      <use x="2076.933594" xlink:href="#DejaVuSans-84"/>
      <use x="2138.017578" xlink:href="#DejaVuSans-95"/>
      <use x="2188.017578" xlink:href="#DejaVuSans-78"/>
      <use x="2262.822266" xlink:href="#DejaVuSans-79"/>
      <use x="2341.533203" xlink:href="#DejaVuSans-80"/>
      <use x="2395.460938" xlink:href="#DejaVuSans-65"/>
      <use x="2456.119141" xlink:href="#DejaVuSans-84"/>
      <use x="2517.203125" xlink:href="#DejaVuSans-72"/>
     </g>
    </g>
    <g id="line2d_49">
     <path d="M 617.723438 582.596813 
L 637.723438 582.596813 
" style="fill:none;stroke:#920000;stroke-linecap:square;stroke-width:1.5;"/>
    </g>
    <g id="line2d_50">
     <g>
      <use style="fill:#920000;stroke:#920000;stroke-linejoin:miter;" x="627.723438" xlink:href="#m3064eaf863" y="582.596813"/>
     </g>
    </g>
    <g id="text_23">
     <!-- noHT_Socket0_Socket1OptaneDAX_Close_noFT_@mnt@pmem1 -->
     <g transform="translate(645.723438 586.096813)scale(0.1 -0.1)">
      <defs>
       <path d="M 6.296875 72.90625 
L 16.890625 72.90625 
L 35.015625 45.796875 
L 53.21875 72.90625 
L 63.8125 72.90625 
L 40.375 37.890625 
L 65.375 0 
L 54.78125 0 
L 34.28125 31 
L 13.625 0 
L 2.984375 0 
L 29 38.921875 
z
" id="DejaVuSans-88"/>
       <path d="M 37.203125 26.21875 
Q 37.203125 19.234375 40.671875 15.25 
Q 44.140625 11.28125 50.203125 11.28125 
Q 56.203125 11.28125 59.640625 15.28125 
Q 63.09375 19.28125 63.09375 26.21875 
Q 63.09375 33.0625 59.578125 37.078125 
Q 56.0625 41.109375 50.09375 41.109375 
Q 44.1875 41.109375 40.6875 37.109375 
Q 37.203125 33.109375 37.203125 26.21875 
z
M 63.8125 11.625 
Q 60.890625 7.859375 57.109375 6.078125 
Q 53.328125 4.296875 48.296875 4.296875 
Q 39.890625 4.296875 34.640625 10.375 
Q 29.390625 16.453125 29.390625 26.21875 
Q 29.390625 35.984375 34.65625 42.078125 
Q 39.9375 48.1875 48.296875 48.1875 
Q 53.328125 48.1875 57.125 46.359375 
Q 60.9375 44.53125 63.8125 40.828125 
L 63.8125 47.21875 
L 70.796875 47.21875 
L 70.796875 11.28125 
Q 77.9375 12.359375 81.953125 17.796875 
Q 85.984375 23.25 85.984375 31.890625 
Q 85.984375 37.109375 84.4375 41.703125 
Q 82.90625 46.296875 79.78125 50.203125 
Q 74.703125 56.59375 67.40625 59.984375 
Q 60.109375 63.375 51.515625 63.375 
Q 45.515625 63.375 39.984375 61.78125 
Q 34.46875 60.203125 29.78125 57.078125 
Q 22.125 52.09375 17.796875 44.015625 
Q 13.484375 35.9375 13.484375 26.515625 
Q 13.484375 18.75 16.28125 11.953125 
Q 19.09375 5.171875 24.421875 0 
Q 29.546875 -5.078125 36.28125 -7.734375 
Q 43.015625 -10.40625 50.6875 -10.40625 
Q 56.984375 -10.40625 63.0625 -8.28125 
Q 69.140625 -6.15625 74.21875 -2.203125 
L 78.609375 -7.625 
Q 72.515625 -12.359375 65.3125 -14.875 
Q 58.109375 -17.390625 50.6875 -17.390625 
Q 41.65625 -17.390625 33.640625 -14.1875 
Q 25.640625 -10.984375 19.390625 -4.890625 
Q 13.140625 1.21875 9.859375 9.25 
Q 6.59375 17.28125 6.59375 26.515625 
Q 6.59375 35.40625 9.90625 43.453125 
Q 13.234375 51.515625 19.390625 57.625 
Q 25.6875 63.8125 33.9375 67.109375 
Q 42.1875 70.40625 51.421875 70.40625 
Q 61.765625 70.40625 70.625 66.15625 
Q 79.5 61.921875 85.5 54.109375 
Q 89.15625 49.3125 91.078125 43.703125 
Q 93.015625 38.09375 93.015625 32.078125 
Q 93.015625 19.234375 85.25 11.8125 
Q 77.484375 4.390625 63.8125 4.109375 
z
" id="DejaVuSans-64"/>
      </defs>
      <use xlink:href="#DejaVuSans-110"/>
      <use x="63.378906" xlink:href="#DejaVuSans-111"/>
      <use x="124.560547" xlink:href="#DejaVuSans-72"/>
      <use x="199.755859" xlink:href="#DejaVuSans-84"/>
      <use x="260.839844" xlink:href="#DejaVuSans-95"/>
      <use x="310.839844" xlink:href="#DejaVuSans-83"/>
      <use x="374.316406" xlink:href="#DejaVuSans-111"/>
      <use x="435.498047" xlink:href="#DejaVuSans-99"/>
      <use x="490.478516" xlink:href="#DejaVuSans-107"/>
      <use x="544.763672" xlink:href="#DejaVuSans-101"/>
      <use x="606.287109" xlink:href="#DejaVuSans-116"/>
      <use x="645.496094" xlink:href="#DejaVuSans-48"/>
      <use x="709.119141" xlink:href="#DejaVuSans-95"/>
      <use x="759.119141" xlink:href="#DejaVuSans-83"/>
      <use x="822.595703" xlink:href="#DejaVuSans-111"/>
      <use x="883.777344" xlink:href="#DejaVuSans-99"/>
      <use x="938.757812" xlink:href="#DejaVuSans-107"/>
      <use x="993.042969" xlink:href="#DejaVuSans-101"/>
      <use x="1054.566406" xlink:href="#DejaVuSans-116"/>
      <use x="1093.775391" xlink:href="#DejaVuSans-49"/>
      <use x="1157.398438" xlink:href="#DejaVuSans-79"/>
      <use x="1236.109375" xlink:href="#DejaVuSans-112"/>
      <use x="1299.585938" xlink:href="#DejaVuSans-116"/>
      <use x="1338.794922" xlink:href="#DejaVuSans-97"/>
      <use x="1400.074219" xlink:href="#DejaVuSans-110"/>
      <use x="1463.453125" xlink:href="#DejaVuSans-101"/>
      <use x="1524.976562" xlink:href="#DejaVuSans-68"/>
      <use x="1600.228516" xlink:href="#DejaVuSans-65"/>
      <use x="1668.636719" xlink:href="#DejaVuSans-88"/>
      <use x="1737.142578" xlink:href="#DejaVuSans-95"/>
      <use x="1787.142578" xlink:href="#DejaVuSans-67"/>
      <use x="1856.966797" xlink:href="#DejaVuSans-108"/>
      <use x="1884.75" xlink:href="#DejaVuSans-111"/>
      <use x="1945.931641" xlink:href="#DejaVuSans-115"/>
      <use x="1998.03125" xlink:href="#DejaVuSans-101"/>
      <use x="2059.554688" xlink:href="#DejaVuSans-95"/>
      <use x="2109.554688" xlink:href="#DejaVuSans-110"/>
      <use x="2172.933594" xlink:href="#DejaVuSans-111"/>
      <use x="2234.115234" xlink:href="#DejaVuSans-70"/>
      <use x="2289.884766" xlink:href="#DejaVuSans-84"/>
      <use x="2350.96875" xlink:href="#DejaVuSans-95"/>
      <use x="2400.96875" xlink:href="#DejaVuSans-64"/>
      <use x="2500.96875" xlink:href="#DejaVuSans-109"/>
      <use x="2598.380859" xlink:href="#DejaVuSans-110"/>
      <use x="2661.759766" xlink:href="#DejaVuSans-116"/>
      <use x="2700.96875" xlink:href="#DejaVuSans-64"/>
      <use x="2800.96875" xlink:href="#DejaVuSans-112"/>
      <use x="2864.445312" xlink:href="#DejaVuSans-109"/>
      <use x="2961.857422" xlink:href="#DejaVuSans-101"/>
      <use x="3023.380859" xlink:href="#DejaVuSans-109"/>
      <use x="3120.792969" xlink:href="#DejaVuSans-49"/>
     </g>
    </g>
    <g id="line2d_51">
     <path d="M 617.723438 597.553063 
L 637.723438 597.553063 
" style="fill:none;stroke:#920000;stroke-linecap:square;stroke-width:1.5;"/>
    </g>
    <g id="line2d_52">
     <g>
      <use style="fill:#920000;stroke:#920000;" x="627.723438" xlink:href="#m64a8de9d97" y="597.553063"/>
     </g>
    </g>
    <g id="text_24">
     <!-- noHT_Socket0_Socket1OptaneDAX_Spread_noFT_@mnt@pmem1 -->
     <g transform="translate(645.723438 601.053063)scale(0.1 -0.1)">
      <use xlink:href="#DejaVuSans-110"/>
      <use x="63.378906" xlink:href="#DejaVuSans-111"/>
      <use x="124.560547" xlink:href="#DejaVuSans-72"/>
      <use x="199.755859" xlink:href="#DejaVuSans-84"/>
      <use x="260.839844" xlink:href="#DejaVuSans-95"/>
      <use x="310.839844" xlink:href="#DejaVuSans-83"/>
      <use x="374.316406" xlink:href="#DejaVuSans-111"/>
      <use x="435.498047" xlink:href="#DejaVuSans-99"/>
      <use x="490.478516" xlink:href="#DejaVuSans-107"/>
      <use x="544.763672" xlink:href="#DejaVuSans-101"/>
      <use x="606.287109" xlink:href="#DejaVuSans-116"/>
      <use x="645.496094" xlink:href="#DejaVuSans-48"/>
      <use x="709.119141" xlink:href="#DejaVuSans-95"/>
      <use x="759.119141" xlink:href="#DejaVuSans-83"/>
      <use x="822.595703" xlink:href="#DejaVuSans-111"/>
      <use x="883.777344" xlink:href="#DejaVuSans-99"/>
      <use x="938.757812" xlink:href="#DejaVuSans-107"/>
      <use x="993.042969" xlink:href="#DejaVuSans-101"/>
      <use x="1054.566406" xlink:href="#DejaVuSans-116"/>
      <use x="1093.775391" xlink:href="#DejaVuSans-49"/>
      <use x="1157.398438" xlink:href="#DejaVuSans-79"/>
      <use x="1236.109375" xlink:href="#DejaVuSans-112"/>
      <use x="1299.585938" xlink:href="#DejaVuSans-116"/>
      <use x="1338.794922" xlink:href="#DejaVuSans-97"/>
      <use x="1400.074219" xlink:href="#DejaVuSans-110"/>
      <use x="1463.453125" xlink:href="#DejaVuSans-101"/>
      <use x="1524.976562" xlink:href="#DejaVuSans-68"/>
      <use x="1600.228516" xlink:href="#DejaVuSans-65"/>
      <use x="1668.636719" xlink:href="#DejaVuSans-88"/>
      <use x="1737.142578" xlink:href="#DejaVuSans-95"/>
      <use x="1787.142578" xlink:href="#DejaVuSans-83"/>
      <use x="1850.619141" xlink:href="#DejaVuSans-112"/>
      <use x="1914.095703" xlink:href="#DejaVuSans-114"/>
      <use x="1952.958984" xlink:href="#DejaVuSans-101"/>
      <use x="2014.482422" xlink:href="#DejaVuSans-97"/>
      <use x="2075.761719" xlink:href="#DejaVuSans-100"/>
      <use x="2139.238281" xlink:href="#DejaVuSans-95"/>
      <use x="2189.238281" xlink:href="#DejaVuSans-110"/>
      <use x="2252.617188" xlink:href="#DejaVuSans-111"/>
      <use x="2313.798828" xlink:href="#DejaVuSans-70"/>
      <use x="2369.568359" xlink:href="#DejaVuSans-84"/>
      <use x="2430.652344" xlink:href="#DejaVuSans-95"/>
      <use x="2480.652344" xlink:href="#DejaVuSans-64"/>
      <use x="2580.652344" xlink:href="#DejaVuSans-109"/>
      <use x="2678.064453" xlink:href="#DejaVuSans-110"/>
      <use x="2741.443359" xlink:href="#DejaVuSans-116"/>
      <use x="2780.652344" xlink:href="#DejaVuSans-64"/>
      <use x="2880.652344" xlink:href="#DejaVuSans-112"/>
      <use x="2944.128906" xlink:href="#DejaVuSans-109"/>
      <use x="3041.541016" xlink:href="#DejaVuSans-101"/>
      <use x="3103.064453" xlink:href="#DejaVuSans-109"/>
      <use x="3200.476562" xlink:href="#DejaVuSans-49"/>
     </g>
    </g>
   </g>
  </g>
 </g>
 <defs>
  <clipPath id="p6577386261">
   <rect height="443.52" width="669.6" x="156.869531" y="22.318125"/>
  </clipPath>
 </defs>
</svg>
